<?xml version="1.0" encoding="UTF-8" standalone="no"?>
<svg
   xmlns:dc="http://purl.org/dc/elements/1.1/"
   xmlns:cc="http://creativecommons.org/ns#"
   xmlns:rdf="http://www.w3.org/1999/02/22-rdf-syntax-ns#"
   xmlns:svg="http://www.w3.org/2000/svg"
   xmlns="http://www.w3.org/2000/svg"
   version="1.1"
   id="svg3603"
   viewBox="0 0 100 100"
   height="34"
   width="34">
  <defs
     id="defs3605" />
  <g
     style="display:inline"
     transform="translate(0,-952.36216)"
     id="layer1" />
  <g
     style="display:inline"
     id="layer2" />
  <g
     style="display:inline"
     id="layer3" />
  <g
     style="display:inline"
     id="layer4" />
  <g
     style="display:inline"
     id="layer5">
    <g
       style="display:inline"
       transform="matrix(0.15923485,0,0,0.15923485,148.47076,-646.59063)"
       id="g13929">
      <path
         id="path13931"
         d="m -496.05092,4422.8883 c 0.004,-0.8391 0.29689,-8.8124 0.6508,-17.7188 1.4611,-36.7906 -0.14002,-86.2227 -3.24541,-100.1843 -1.91354,-8.6033 -5.13775,-11.6664 -28.36245,-26.9463 -64.26707,-42.2821 -135.64045,-76.3709 -203.11895,-97.0121 l -15.49349,-4.7394 22.24844,-12.0195 c 46.41323,-25.0739 72.58475,-37.5278 85.219,-40.5518 7.32652,-1.7535 12.52618,-0.6101 28.82919,6.3402 52.86844,22.5394 169.71081,92.1262 191.08871,113.8053 6.52721,6.6191 7.95418,12.8798 10.89301,47.7885 0.83723,9.9448 2.54489,48.3617 2.25315,50.6923 -0.0203,0.1582 -5.25692,5.8118 -11.63808,12.5625 -19.53087,20.662 -40.64814,39.6783 -66.04359,59.4729 -13.85082,10.796 -13.28985,10.4366 -13.28033,8.5105 l 0,0 z"
         style="fill:#fff;fill-opacity:1;stroke:none" />
      <path
         style="fill:#fff;fill-opacity:1;stroke:none"
         d="m -859.87995,4375.8222 c -0.58322,-1.0101 0.31281,-44.6174 1.37674,-67.0054 1.69166,-35.5901 4.40476,-54.5371 8.77448,-61.2733 4.58713,-7.0713 27.73615,-24.0592 60.5306,-44.4198 l 19.26239,-11.9593 13.67094,3.1035 c 23.27197,5.2832 57.63571,16.8601 87.24188,29.3916 l 13.98763,5.9205 -43.43438,25.0943 c -41.216,23.8135 -44.57337,25.9214 -65.69881,41.3403 -40.65888,29.6756 -74.3313,57.9588 -94.04973,78.9968 -0.72486,0.7735 -1.47194,1.1396 -1.66008,0.8137 z"
         id="path13933" />
      <path
         style="fill:#fff;fill-opacity:1;stroke:none"
         d="m -569.78167,4600.0283 c -24.94361,13.1759 -52.39739,25.1795 -59.74963,26.1245 -2.21839,0.285 -6.6361,-0.179 -9.81708,-1.0313 -24.28951,-6.5085 -107.9614,-51.7623 -166.93168,-90.285 -27.35114,-17.8671 -40.40582,-28.0498 -44.04712,-34.3567 -4.41952,-7.6549 -7.20885,-31.6811 -8.87074,-76.4071 l -0.71047,-19.1189 12.28152,-12.8176 c 14.88688,-15.5367 28.47567,-28.3588 43.9223,-41.4442 10.69963,-9.0639 34.14577,-27.5428 34.8391,-27.4582 0.16366,0.021 0.0377,5.2174 -0.28196,11.5494 -2.09742,41.54 -0.15362,102.3028 3.60886,112.815 1.84724,5.1614 7.67181,10.2768 24.82629,21.8046 45.3521,30.476 113.10888,64.8545 166.22396,84.339 8.82197,3.2364 25.13471,8.4377 36.25056,11.5587 l 20.21078,5.6745 -22.37999,12.6792 c -12.30885,6.974 -25.52762,14.3419 -29.3747,16.3741 z"
         id="path13935" />
      <path
         id="path13937"
         d="m -770.2964,4324.1535 c -1.5897,1.0189 -4.91496,3.619 -11.8402,9.017 -10.49336,8.179 -38.91367,32.4338 -38.91367,32.4338 0,0 -0.01,3.9071 0.87401,8.572 7.00971,37.0021 19.38599,72.5885 22.49138,86.5501 1.91354,8.6033 5.13867,11.6783 28.36329,26.958 77.66396,45.3276 169.32846,62.1919 249.76607,83.5008 l 0.25916,0.1223 -15.49639,-4.7708 c -67.47836,-20.6413 -138.83766,-54.7129 -203.10472,-96.995 -23.22475,-15.2797 -26.44988,-18.3546 -28.36342,-26.958 -3.10539,-13.9615 -5.12194,-63.3999 -3.25131,-100.1721 0.45913,-9.0251 0.72917,-15.9756 0.71938,-18.5459 -0.004,-0.963 0.0863,-0.7312 -1.50358,0.2878 z"
         style="fill:#000000;fill-opacity:0.09604522;stroke:none" />
      <g
         id="g13939"
         transform="matrix(0.97173937,-0.23605636,-0.23605636,-0.97173937,1048.7865,8759.9076)">
        <path
           id="path13941"
           d="m -512.74766,4552.3065 c -21.0888,-5.4829 -41.64589,-11.8208 -58.63077,-18.0763 -14.80673,-5.4532 -38.20998,-15.105 -37.95639,-15.654 0.10651,-0.2324 6.76905,-3.7372 14.80523,-7.7892 27.39612,-13.8155 79.49879,-46.1893 90.46918,-56.2129 1.97204,-1.8017 9.17498,-7.3493 16.00691,-12.3277 26.3149,-19.1763 52.22212,-41.0158 72.44946,-61.0742 5.53369,-5.4874 10.24834,-9.935 10.47694,-9.8831 0.71413,0.1617 -0.13011,45.2698 -1.30111,69.5327 -1.90206,39.4065 -4.87222,57.4409 -10.41386,63.2346 -7.66666,8.0152 -48.58118,36.581 -70.20775,49.0177 l -7.08208,4.0715 -18.61628,-4.84 z"
           style="fill:#fff;fill-opacity:1;stroke:none" />
        <path
           id="path13943"
           d="m -405.14606,4371.3012 c 0,0 -4.94038,4.4052 -10.47408,9.8927 -20.22712,20.0584 -46.11486,41.8685 -72.42963,61.0448 -6.83193,4.9784 -14.03384,10.5386 -16.00588,12.3403 -10.97059,10.0236 -63.0947,42.3898 -90.49115,56.2053 -8.03582,4.0524 -14.6797,7.5593 -14.78671,7.7912 -0.25333,0.5488 23.16758,10.2164 37.97423,15.6694 6.42787,2.3675 13.38055,4.7259 20.66685,7.066 37.76292,-28.012 102.34346,-85.2849 145.54637,-170.0097 z"
           style="fill:#000000;fill-opacity:0.09604522;stroke:none" />
      </g>
      <path
         id="path13945"
         d="m -860.0304,4377.5021 c 0,0 4.94018,-4.4053 10.474,-9.8928 20.22721,-20.0583 46.115,-41.8686 72.42976,-61.0449 6.83181,-4.9783 14.03379,-10.5384 16.00562,-12.3402 10.9706,-10.0235 63.09497,-42.3899 90.49116,-56.2053 8.03595,-4.0524 14.67982,-7.5593 14.78679,-7.791 0.25358,-0.5489 -23.16746,-10.2165 -37.97419,-15.6697 -6.42799,-2.3673 -13.38034,-4.7257 -20.66685,-7.0659 -37.76291,28.012 -102.34338,85.285 -145.54629,170.0098 z"
         style="fill:#000000;fill-opacity:0.09604522;stroke:none" />
      <path
         style="fill:#000000;fill-opacity:0.09604522;stroke:none"
         d="m -494.80511,4423.3999 c 1.58969,-1.0189 4.91495,-3.619 11.84033,-9.0171 10.49322,-8.1789 38.9134,-32.4337 38.9134,-32.4337 0,0 0.01,-3.9071 -0.87395,-8.5721 -7.00964,-37.002 -19.38586,-72.5886 -22.49125,-86.5502 -1.91346,-8.6032 -5.13872,-11.6781 -28.36342,-26.958 -77.66388,-45.3274 -169.32852,-62.1917 -249.76607,-83.5007 l -0.25895,-0.1222 15.49625,4.7708 c 67.4785,20.6412 138.83759,54.7127 203.10478,96.9948 23.2247,15.2798 26.44982,18.3548 28.36329,26.958 3.10539,13.9616 5.12215,63.4 3.25131,100.1722 -0.45905,9.0252 -0.72917,15.9755 -0.7193,18.546 0.004,0.963 -0.0865,0.7311 1.50358,-0.2878 z"
         id="path13947" />
    </g>
  </g>
</svg>
