<svg width="824" height="368" viewBox="0 0 824 368" version="1.1" xmlns="http://www.w3.org/2000/svg" xmlns:xlink="http://www.w3.org/1999/xlink">
<title>Group</title>
<desc>Created using Figma</desc>
<g id="Canvas" transform="translate(540 291)">
<g id="Group">
<g id="Group">
<g id="Rectangle 2" filter="url(#filter0_d)">
<use xlink:href="#path0_fill" transform="translate(1 -183)" fill="#D53D97"/>
</g>
<g id="QuantumJS">
<use xlink:href="#path1_fill" transform="translate(39 -135)" fill="#FFFFFF"/>
</g>
</g>
<g id="Group">
<g id="Group">
<g id="Group" filter="url(#filter1_d)">
<g id="Rectangle">
<use xlink:href="#path2_fill" transform="translate(-474 -291)" fill="#183860"/>
</g>
<g id="quantum-version">
<use xlink:href="#path3_fill" transform="translate(-459 -280)" fill="#FFFFFF"/>
</g>
</g>
<g id="Group" filter="url(#filter2_d)">
<g id="Rectangle">
<use xlink:href="#path4_fill" transform="translate(-422 -194)" fill="#183860"/>
</g>
<g id="quantum-api">
<use xlink:href="#path5_fill" transform="translate(-409 -183)" fill="#FFFFFF"/>
</g>
</g>
<g id="Group" filter="url(#filter3_d)">
<g id="Rectangle">
<use xlink:href="#path6_fill" transform="translate(-452 -1)" fill="#0091D6"/>
</g>
<g id="your-extension">
<use xlink:href="#path7_fill" transform="translate(-452 10)" fill="#FFFFFF"/>
</g>
</g>
<g id="Group" filter="url(#filter4_d)">
<g id="Rectangle">
<use xlink:href="#path8_fill" transform="translate(-536 -97)" fill="#183860"/>
</g>
<g id="quantum-markdown">
<use xlink:href="#path9_fill" transform="translate(-521 -87)" fill="#FFFFFF"/>
</g>
</g>
</g>
</g>
<g id="Group" filter="url(#filter5_d)">
<g id="Vector">
<use xlink:href="#path10_stroke" transform="translate(-154 -256)" fill="#F4F4F4"/>
</g>
<g id="Vector">
<use xlink:href="#path11_stroke" transform="translate(-154 -158)" fill="#F4F4F4"/>
</g>
<g id="Vector">
<use xlink:href="#path12_stroke" transform="matrix(1 0 0 -1 -154 -61)" fill="#F4F4F4"/>
</g>
<g id="Vector">
<use xlink:href="#path13_stroke" transform="matrix(1 0 0 -1 -154 37)" fill="#F4F4F4"/>
</g>
</g>
<g id="Group">
<g id="Ellipse">
<use xlink:href="#path14_fill" transform="translate(-156 -263)" fill="#F4F4F4"/>
</g>
<g id="Ellipse">
<use xlink:href="#path14_fill" transform="translate(-156 -165)" fill="#F4F4F4"/>
</g>
<g id="Ellipse">
<use xlink:href="#path14_fill" transform="translate(-156 -69)" fill="#F4F4F4"/>
</g>
<g id="Ellipse">
<use xlink:href="#path14_fill" transform="translate(-156 29)" fill="#F4F4F4"/>
</g>
<g id="Ellipse">
<use xlink:href="#path14_fill" transform="translate(-6 -118)" fill="#F4F4F4"/>
</g>
</g>
</g>
</g>
<defs>
<filter id="filter0_d" filterUnits="userSpaceOnUse" x="-3" y="-183" width="287" height="153" color-interpolation-filters="sRGB">
<feFlood flood-opacity="0" result="BackgroundImageFix"/>
<feColorMatrix in="SourceAlpha" type="matrix" values="0 0 0 0 0 0 0 0 0 0 0 0 0 0 0 0 0 0 255 0"/>
<feOffset dx="0" dy="4"/>
<feGaussianBlur stdDeviation="2"/>
<feColorMatrix type="matrix" values="0 0 0 0 0 0 0 0 0 0 0 0 0 0 0 0 0 0 0.25 0"/>
<feBlend mode="normal" in2="BackgroundImageFix" result="effect1_dropShadow"/>
<feBlend mode="normal" in="SourceGraphic" in2="effect1_dropShadow" result="shape"/>
</filter>
<filter id="filter1_d" filterUnits="userSpaceOnUse" x="-478" y="-291" width="334" height="78" color-interpolation-filters="sRGB">
<feFlood flood-opacity="0" result="BackgroundImageFix"/>
<feColorMatrix in="SourceAlpha" type="matrix" values="0 0 0 0 0 0 0 0 0 0 0 0 0 0 0 0 0 0 255 0"/>
<feOffset dx="0" dy="4"/>
<feGaussianBlur stdDeviation="2"/>
<feColorMatrix type="matrix" values="0 0 0 0 0 0 0 0 0 0 0 0 0 0 0 0 0 0 0.25 0"/>
<feBlend mode="normal" in2="BackgroundImageFix" result="effect1_dropShadow"/>
<feBlend mode="normal" in="SourceGraphic" in2="effect1_dropShadow" result="shape"/>
</filter>
<filter id="filter2_d" filterUnits="userSpaceOnUse" x="-426" y="-194" width="282" height="78" color-interpolation-filters="sRGB">
<feFlood flood-opacity="0" result="BackgroundImageFix"/>
<feColorMatrix in="SourceAlpha" type="matrix" values="0 0 0 0 0 0 0 0 0 0 0 0 0 0 0 0 0 0 255 0"/>
<feOffset dx="0" dy="4"/>
<feGaussianBlur stdDeviation="2"/>
<feColorMatrix type="matrix" values="0 0 0 0 0 0 0 0 0 0 0 0 0 0 0 0 0 0 0.25 0"/>
<feBlend mode="normal" in2="BackgroundImageFix" result="effect1_dropShadow"/>
<feBlend mode="normal" in="SourceGraphic" in2="effect1_dropShadow" result="shape"/>
</filter>
<filter id="filter3_d" filterUnits="userSpaceOnUse" x="-456" y="-1" width="312" height="78" color-interpolation-filters="sRGB">
<feFlood flood-opacity="0" result="BackgroundImageFix"/>
<feColorMatrix in="SourceAlpha" type="matrix" values="0 0 0 0 0 0 0 0 0 0 0 0 0 0 0 0 0 0 255 0"/>
<feOffset dx="0" dy="4"/>
<feGaussianBlur stdDeviation="2"/>
<feColorMatrix type="matrix" values="0 0 0 0 0 0 0 0 0 0 0 0 0 0 0 0 0 0 0.25 0"/>
<feBlend mode="normal" in2="BackgroundImageFix" result="effect1_dropShadow"/>
<feBlend mode="normal" in="SourceGraphic" in2="effect1_dropShadow" result="shape"/>
</filter>
<filter id="filter4_d" filterUnits="userSpaceOnUse" x="-540" y="-97" width="396" height="77" color-interpolation-filters="sRGB">
<feFlood flood-opacity="0" result="BackgroundImageFix"/>
<feColorMatrix in="SourceAlpha" type="matrix" values="0 0 0 0 0 0 0 0 0 0 0 0 0 0 0 0 0 0 255 0"/>
<feOffset dx="0" dy="4"/>
<feGaussianBlur stdDeviation="2"/>
<feColorMatrix type="matrix" values="0 0 0 0 0 0 0 0 0 0 0 0 0 0 0 0 0 0 0.25 0"/>
<feBlend mode="normal" in2="BackgroundImageFix" result="effect1_dropShadow"/>
<feBlend mode="normal" in="SourceGraphic" in2="effect1_dropShadow" result="shape"/>
</filter>
<filter id="filter5_d" filterUnits="userSpaceOnUse" x="-159" y="-259" width="165" height="307" color-interpolation-filters="sRGB">
<feFlood flood-opacity="0" result="BackgroundImageFix"/>
<feColorMatrix in="SourceAlpha" type="matrix" values="0 0 0 0 0 0 0 0 0 0 0 0 0 0 0 0 0 0 255 0"/>
<feOffset dx="0" dy="4"/>
<feGaussianBlur stdDeviation="2"/>
<feColorMatrix type="matrix" values="0 0 0 0 0 0 0 0 0 0 0 0 0 0 0 0 0 0 0.25 0"/>
<feBlend mode="normal" in2="BackgroundImageFix" result="effect1_dropShadow"/>
<feBlend mode="normal" in="SourceGraphic" in2="effect1_dropShadow" result="shape"/>
</filter>
<path id="path0_fill" d="M 0 5C 0 2.23858 2.23858 0 5 0L 274 0C 276.761 0 279 2.23858 279 5L 279 140C 279 142.761 276.761 145 274 145L 5 145C 2.23858 145 0 142.761 0 140L 0 5Z"/>
<path id="path1_fill" d="M 24.0469 25.3965C 24.0469 27.6699 23.625 29.7441 22.7812 31.6191C 21.9375 33.4941 20.7598 35.0059 19.248 36.1543L 24.4336 39.8105L 22.0605 41.9199L 16.2422 37.7715C 15.6563 37.959 15.0527 38.1055 14.4316 38.2109C 13.8105 38.3164 13.1777 38.3691 12.5332 38.3691C 9.22852 38.3691 6.54492 37.1387 4.48242 34.6777C 2.41992 32.2168 1.38867 29.123 1.38867 25.3965L 1.38867 25.0273C 1.38867 21.3125 2.41992 18.2187 4.48242 15.7461C 6.54492 13.2734 9.22852 12.0371 12.5332 12.0371C 15.9316 12.0371 18.6973 13.2734 20.8301 15.7461C 22.9746 18.2187 24.0469 21.3125 24.0469 25.0273L 24.0469 25.3965ZM 20.584 24.9922C 20.584 22.0156 19.8691 19.5898 18.4395 17.7148C 17.0215 15.8281 15.0527 14.8848 12.5332 14.8848C 10.1191 14.8848 8.23242 15.8281 6.87305 17.7148C 5.52539 19.6016 4.85156 22.0273 4.85156 24.9922L 4.85156 25.3965C 4.85156 28.3965 5.52539 30.8398 6.87305 32.7266C 8.23242 34.6016 10.1191 35.5391 12.5332 35.5391C 15.0879 35.5391 17.0684 34.6016 18.4746 32.7266C 19.8809 30.8516 20.584 28.4082 20.584 25.3965L 20.584 24.9922ZM 40.5879 35.1875C 39.9902 36.207 39.2168 36.9922 38.2676 37.543C 37.3301 38.0938 36.2461 38.3691 35.0156 38.3691C 32.9531 38.3691 31.3418 37.707 30.1816 36.3828C 29.0215 35.0586 28.4414 32.9961 28.4414 30.1953L 28.4414 21.7051L 26.2617 21.2129L 26.2617 18.9805L 28.4414 18.9805L 31.9043 18.9805L 31.9043 30.2305C 31.9043 32.2578 32.2031 33.6523 32.8008 34.4141C 33.3984 35.1758 34.3301 35.5566 35.5957 35.5566C 36.8262 35.5566 37.8398 35.3105 38.6367 34.8184C 39.4453 34.3145 40.0547 33.6055 40.4648 32.6914L 40.4648 21.7051L 37.916 21.2129L 37.916 18.9805L 40.4648 18.9805L 43.9277 18.9805L 43.9277 35.293L 46.1074 35.7852L 46.1074 38L 40.8164 38L 40.5879 35.1875ZM 61.2598 38C 61.1543 37.4844 61.0723 37.0215 61.0137 36.6113C 60.9551 36.2012 60.9141 35.791 60.8906 35.3809C 60.2227 36.2363 59.3848 36.9512 58.377 37.5254C 57.3809 38.0879 56.3145 38.3691 55.1777 38.3691C 53.1973 38.3691 51.6914 37.8887 50.6602 36.9277C 49.6289 35.9551 49.1133 34.5898 49.1133 32.832C 49.1133 31.0273 49.8398 29.6387 51.293 28.666C 52.7578 27.6816 54.7617 27.1895 57.3047 27.1895L 60.873 27.1895L 60.873 24.9746C 60.873 23.8613 60.5215 22.9824 59.8184 22.3379C 59.1152 21.6816 58.1367 21.3535 56.8828 21.3535C 56.0156 21.3535 55.248 21.4648 54.5801 21.6875C 53.9238 21.9102 53.3906 22.2148 52.9805 22.6016L 52.6113 24.6055L 49.9395 24.6055L 49.9395 20.9141C 50.8066 20.2227 51.8555 19.6719 53.0859 19.2617C 54.3164 18.8398 55.6523 18.6289 57.0938 18.6289C 59.25 18.6289 60.9961 19.1797 62.332 20.2812C 63.668 21.3828 64.3359 22.959 64.3359 25.0098L 64.3359 34.168C 64.3359 34.4141 64.3359 34.6543 64.3359 34.8887C 64.3477 35.123 64.3652 35.3574 64.3887 35.5918L 65.7949 35.7852L 65.7949 38L 61.2598 38ZM 55.6875 35.4688C 56.8359 35.4688 57.8848 35.1934 58.834 34.6426C 59.7832 34.0918 60.4629 33.4297 60.873 32.6562L 60.873 29.5273L 57.1816 29.5273C 55.7637 29.5273 54.6387 29.8555 53.8066 30.5117C 52.9863 31.168 52.5762 31.9648 52.5762 32.9023C 52.5762 33.7344 52.834 34.373 53.3496 34.8184C 53.8652 35.252 54.6445 35.4688 55.6875 35.4688ZM 68.168 35.7852L 71.0332 35.293L 71.0332 21.7051L 68.168 21.2129L 68.168 18.9805L 74.127 18.9805L 74.373 21.8105C 75.0059 20.8027 75.7969 20.0234 76.7461 19.4727C 77.707 18.9102 78.7969 18.6289 80.0156 18.6289C 82.0664 18.6289 83.6543 19.2324 84.7793 20.4395C 85.9043 21.6348 86.4668 23.4863 86.4668 25.9941L 86.4668 35.293L 89.332 35.7852L 89.332 38L 80.1387 38L 80.1387 35.7852L 83.0039 35.293L 83.0039 26.0645C 83.0039 24.3887 82.6699 23.1992 82.002 22.4961C 81.3457 21.793 80.3379 21.4414 78.9785 21.4414C 77.9824 21.4414 77.0977 21.6816 76.3242 22.1621C 75.5625 22.6426 74.9531 23.2988 74.4961 24.1309L 74.4961 35.293L 77.3613 35.7852L 77.3613 38L 68.168 38L 68.168 35.7852ZM 97.8926 14.3926L 97.8926 18.9805L 101.496 18.9805L 101.496 21.5469L 97.8926 21.5469L 97.8926 33.0957C 97.8926 33.9863 98.0742 34.6133 98.4375 34.9766C 98.8125 35.3398 99.3047 35.5215 99.9141 35.5215C 100.219 35.5215 100.559 35.498 100.934 35.4512C 101.32 35.3926 101.643 35.334 101.9 35.2754L 102.375 37.6484C 102.047 37.8594 101.566 38.0293 100.934 38.1582C 100.301 38.2988 99.668 38.3691 99.0352 38.3691C 97.6289 38.3691 96.5098 37.9473 95.6777 37.1035C 94.8457 36.248 94.4297 34.9121 94.4297 33.0957L 94.4297 21.5469L 91.4238 21.5469L 91.4238 18.9805L 94.4297 18.9805L 94.4297 14.3926L 97.8926 14.3926ZM 118.635 35.1875C 118.037 36.207 117.264 36.9922 116.314 37.543C 115.377 38.0938 114.293 38.3691 113.062 38.3691C 111 38.3691 109.389 37.707 108.229 36.3828C 107.068 35.0586 106.488 32.9961 106.488 30.1953L 106.488 21.7051L 104.309 21.2129L 104.309 18.9805L 106.488 18.9805L 109.951 18.9805L 109.951 30.2305C 109.951 32.2578 110.25 33.6523 110.848 34.4141C 111.445 35.1758 112.377 35.5566 113.643 35.5566C 114.873 35.5566 115.887 35.3105 116.684 34.8184C 117.492 34.3145 118.102 33.6055 118.512 32.6914L 118.512 21.7051L 115.963 21.2129L 115.963 18.9805L 118.512 18.9805L 121.975 18.9805L 121.975 35.293L 124.154 35.7852L 124.154 38L 118.863 38L 118.635 35.1875ZM 126.211 35.7852L 129.076 35.293L 129.076 21.7051L 126.211 21.2129L 126.211 18.9805L 132.188 18.9805L 132.416 21.459C 133.025 20.5566 133.811 19.8594 134.771 19.3672C 135.732 18.875 136.846 18.6289 138.111 18.6289C 139.377 18.6289 140.461 18.9219 141.363 19.5078C 142.277 20.0937 142.963 20.9727 143.42 22.1445C 144.018 21.0664 144.809 20.2109 145.793 19.5781C 146.777 18.9453 147.926 18.6289 149.238 18.6289C 151.184 18.6289 152.719 19.2969 153.844 20.6328C 154.969 21.957 155.531 23.9551 155.531 26.627L 155.531 35.293L 158.396 35.7852L 158.396 38L 149.186 38L 149.186 35.7852L 152.051 35.293L 152.051 26.5918C 152.051 24.7168 151.729 23.3926 151.084 22.6191C 150.439 21.834 149.484 21.4414 148.219 21.4414C 147.012 21.4414 146.039 21.8691 145.301 22.7246C 144.574 23.5684 144.152 24.6348 144.035 25.9238L 144.035 35.293L 146.9 35.7852L 146.9 38L 137.707 38L 137.707 35.7852L 140.572 35.293L 140.572 26.5918C 140.572 24.8105 140.238 23.5098 139.57 22.6895C 138.914 21.8574 137.959 21.4414 136.705 21.4414C 135.65 21.4414 134.783 21.6582 134.104 22.0918C 133.424 22.5254 132.902 23.1348 132.539 23.9199L 132.539 35.293L 135.404 35.7852L 135.404 38L 126.211 38L 126.211 35.7852ZM 179.121 12.4062L 179.121 14.6387L 176.256 15.1309L 176.256 30.916C 176.256 33.2012 175.529 35.0176 174.076 36.3652C 172.635 37.7012 170.76 38.3691 168.451 38.3691C 165.99 38.3691 164.033 37.748 162.58 36.5059C 161.127 35.252 160.43 33.4355 160.488 31.0566L 160.523 30.9512L 163.846 30.9512C 163.846 32.5332 164.244 33.7168 165.041 34.502C 165.85 35.2754 166.986 35.6621 168.451 35.6621C 169.729 35.6621 170.771 35.2344 171.58 34.3789C 172.389 33.5117 172.793 32.3574 172.793 30.916L 172.793 15.1309L 169.928 14.6387L 169.928 12.4062L 176.256 12.4062L 179.121 12.4062ZM 199.951 19.9648L 197.332 19.9648L 196.682 16.3086C 196.154 15.8633 195.451 15.4941 194.572 15.2012C 193.693 14.9082 192.674 14.7617 191.514 14.7617C 189.674 14.7617 188.262 15.1543 187.277 15.9395C 186.293 16.7129 185.801 17.7266 185.801 18.9805C 185.801 20.0937 186.299 21.0254 187.295 21.7754C 188.303 22.5137 189.926 23.1641 192.164 23.7266C 194.859 24.3945 196.904 25.3789 198.299 26.6797C 199.705 27.9805 200.408 29.5918 200.408 31.5137C 200.408 33.5762 199.564 35.2344 197.877 36.4883C 196.201 37.7422 194.004 38.3691 191.285 38.3691C 189.316 38.3691 187.564 38.0469 186.029 37.4023C 184.506 36.7578 183.264 35.9141 182.303 34.8711L 182.303 30.1074L 184.904 30.1074L 185.572 33.7812C 186.24 34.332 187.037 34.7832 187.963 35.1348C 188.889 35.4863 189.996 35.6621 191.285 35.6621C 193.031 35.6621 194.408 35.293 195.416 34.5547C 196.436 33.8164 196.945 32.8145 196.945 31.5488C 196.945 30.377 196.506 29.3984 195.627 28.6133C 194.748 27.8164 193.195 27.1484 190.969 26.6094C 188.262 25.9648 186.146 25.0156 184.623 23.7617C 183.1 22.5078 182.338 20.9316 182.338 19.0332C 182.338 17.0293 183.187 15.3652 184.887 14.041C 186.586 12.7051 188.795 12.0371 191.514 12.0371C 193.307 12.0371 194.936 12.3477 196.4 12.9688C 197.877 13.5781 199.061 14.3223 199.951 15.2012L 199.951 19.9648Z"/>
<path id="path2_fill" d="M 0 4C 0 1.79086 1.79086 0 4 0L 322 0C 324.209 0 326 1.79086 326 4L 326 66C 326 68.2091 324.209 70 322 70L 4 70C 1.79086 70 0 68.2091 0 66L 0 4Z"/>
<path id="path3_fill" d="M 2.07422 28.8418C 2.07422 25.7832 2.72461 23.3164 4.02539 21.4414C 5.33789 19.5664 7.16602 18.6289 9.50977 18.6289C 10.623 18.6289 11.6133 18.8398 12.4805 19.2617C 13.3477 19.6719 14.0859 20.2754 14.6953 21.0723L 14.9766 18.9805L 17.9648 18.9805L 17.9648 42.5879L 20.8301 43.0801L 20.8301 45.3125L 11.6367 45.3125L 11.6367 43.0801L 14.502 42.5879L 14.502 36.207C 13.8926 36.9219 13.166 37.4609 12.3223 37.8242C 11.4902 38.1875 10.541 38.3691 9.47461 38.3691C 7.1543 38.3691 5.33789 37.5313 4.02539 35.8555C 2.72461 34.168 2.07422 31.9531 2.07422 29.2109L 2.07422 28.8418ZM 5.53711 29.2109C 5.53711 31.1328 5.92969 32.6914 6.71484 33.8867C 7.5 35.0703 8.71289 35.6621 10.3535 35.6621C 11.3145 35.6621 12.1289 35.4512 12.7969 35.0293C 13.4766 34.6074 14.0449 34.0098 14.502 33.2363L 14.502 23.6914C 14.0449 22.9766 13.4766 22.4082 12.7969 21.9863C 12.1172 21.5645 11.3145 21.3535 10.3887 21.3535C 8.73633 21.3535 7.51172 22.0566 6.71484 23.4629C 5.92969 24.8574 5.53711 26.6504 5.53711 28.8418L 5.53711 29.2109ZM 35.9824 35.1875C 35.3848 36.207 34.6113 36.9922 33.6621 37.543C 32.7246 38.0938 31.6406 38.3691 30.4102 38.3691C 28.3477 38.3691 26.7363 37.707 25.5762 36.3828C 24.416 35.0586 23.8359 32.9961 23.8359 30.1953L 23.8359 21.7051L 21.6562 21.2129L 21.6562 18.9805L 23.8359 18.9805L 27.2988 18.9805L 27.2988 30.2305C 27.2988 32.2578 27.5977 33.6523 28.1953 34.4141C 28.793 35.1758 29.7246 35.5566 30.9902 35.5566C 32.2207 35.5566 33.2344 35.3105 34.0312 34.8184C 34.8398 34.3145 35.4492 33.6055 35.8594 32.6914L 35.8594 21.7051L 33.3105 21.2129L 33.3105 18.9805L 35.8594 18.9805L 39.3223 18.9805L 39.3223 35.293L 41.502 35.7852L 41.502 38L 36.2109 38L 35.9824 35.1875ZM 56.6543 38C 56.5488 37.4844 56.4668 37.0215 56.4082 36.6113C 56.3496 36.2012 56.3086 35.791 56.2852 35.3809C 55.6172 36.2363 54.7793 36.9512 53.7715 37.5254C 52.7754 38.0879 51.709 38.3691 50.5723 38.3691C 48.5918 38.3691 47.0859 37.8887 46.0547 36.9277C 45.0234 35.9551 44.5078 34.5898 44.5078 32.832C 44.5078 31.0273 45.2344 29.6387 46.6875 28.666C 48.1523 27.6816 50.1563 27.1895 52.6992 27.1895L 56.2676 27.1895L 56.2676 24.9746C 56.2676 23.8613 55.916 22.9824 55.2129 22.3379C 54.5098 21.6816 53.5312 21.3535 52.2773 21.3535C 51.4102 21.3535 50.6426 21.4648 49.9746 21.6875C 49.3184 21.9102 48.7852 22.2148 48.375 22.6016L 48.0059 24.6055L 45.334 24.6055L 45.334 20.9141C 46.2012 20.2227 47.25 19.6719 48.4805 19.2617C 49.7109 18.8398 51.0469 18.6289 52.4883 18.6289C 54.6445 18.6289 56.3906 19.1797 57.7266 20.2812C 59.0625 21.3828 59.7305 22.959 59.7305 25.0098L 59.7305 34.168C 59.7305 34.4141 59.7305 34.6543 59.7305 34.8887C 59.7422 35.123 59.7598 35.3574 59.7832 35.5918L 61.1895 35.7852L 61.1895 38L 56.6543 38ZM 51.082 35.4688C 52.2305 35.4688 53.2793 35.1934 54.2285 34.6426C 55.1777 34.0918 55.8574 33.4297 56.2676 32.6562L 56.2676 29.5273L 52.5762 29.5273C 51.1582 29.5273 50.0332 29.8555 49.2012 30.5117C 48.3809 31.168 47.9707 31.9648 47.9707 32.9023C 47.9707 33.7344 48.2285 34.373 48.7441 34.8184C 49.2598 35.252 50.0391 35.4688 51.082 35.4688ZM 63.5625 35.7852L 66.4277 35.293L 66.4277 21.7051L 63.5625 21.2129L 63.5625 18.9805L 69.5215 18.9805L 69.7676 21.8105C 70.4004 20.8027 71.1914 20.0234 72.1406 19.4727C 73.1016 18.9102 74.1914 18.6289 75.4102 18.6289C 77.4609 18.6289 79.0488 19.2324 80.1738 20.4395C 81.2988 21.6348 81.8613 23.4863 81.8613 25.9941L 81.8613 35.293L 84.7266 35.7852L 84.7266 38L 75.5332 38L 75.5332 35.7852L 78.3984 35.293L 78.3984 26.0645C 78.3984 24.3887 78.0645 23.1992 77.3965 22.4961C 76.7402 21.793 75.7324 21.4414 74.373 21.4414C 73.377 21.4414 72.4922 21.6816 71.7188 22.1621C 70.957 22.6426 70.3477 23.2988 69.8906 24.1309L 69.8906 35.293L 72.7559 35.7852L 72.7559 38L 63.5625 38L 63.5625 35.7852ZM 93.2871 14.3926L 93.2871 18.9805L 96.8906 18.9805L 96.8906 21.5469L 93.2871 21.5469L 93.2871 33.0957C 93.2871 33.9863 93.4688 34.6133 93.832 34.9766C 94.207 35.3398 94.6992 35.5215 95.3086 35.5215C 95.6133 35.5215 95.9531 35.498 96.3281 35.4512C 96.7148 35.3926 97.0371 35.334 97.2949 35.2754L 97.7695 37.6484C 97.4414 37.8594 96.9609 38.0293 96.3281 38.1582C 95.6953 38.2988 95.0625 38.3691 94.4297 38.3691C 93.0234 38.3691 91.9043 37.9473 91.0723 37.1035C 90.2402 36.248 89.8242 34.9121 89.8242 33.0957L 89.8242 21.5469L 86.8184 21.5469L 86.8184 18.9805L 89.8242 18.9805L 89.8242 14.3926L 93.2871 14.3926ZM 114.029 35.1875C 113.432 36.207 112.658 36.9922 111.709 37.543C 110.771 38.0938 109.688 38.3691 108.457 38.3691C 106.395 38.3691 104.783 37.707 103.623 36.3828C 102.463 35.0586 101.883 32.9961 101.883 30.1953L 101.883 21.7051L 99.7031 21.2129L 99.7031 18.9805L 101.883 18.9805L 105.346 18.9805L 105.346 30.2305C 105.346 32.2578 105.645 33.6523 106.242 34.4141C 106.84 35.1758 107.771 35.5566 109.037 35.5566C 110.268 35.5566 111.281 35.3105 112.078 34.8184C 112.887 34.3145 113.496 33.6055 113.906 32.6914L 113.906 21.7051L 111.357 21.2129L 111.357 18.9805L 113.906 18.9805L 117.369 18.9805L 117.369 35.293L 119.549 35.7852L 119.549 38L 114.258 38L 114.029 35.1875ZM 121.605 35.7852L 124.471 35.293L 124.471 21.7051L 121.605 21.2129L 121.605 18.9805L 127.582 18.9805L 127.811 21.459C 128.42 20.5566 129.205 19.8594 130.166 19.3672C 131.127 18.875 132.24 18.6289 133.506 18.6289C 134.771 18.6289 135.855 18.9219 136.758 19.5078C 137.672 20.0937 138.357 20.9727 138.814 22.1445C 139.412 21.0664 140.203 20.2109 141.188 19.5781C 142.172 18.9453 143.32 18.6289 144.633 18.6289C 146.578 18.6289 148.113 19.2969 149.238 20.6328C 150.363 21.957 150.926 23.9551 150.926 26.627L 150.926 35.293L 153.791 35.7852L 153.791 38L 144.58 38L 144.58 35.7852L 147.445 35.293L 147.445 26.5918C 147.445 24.7168 147.123 23.3926 146.479 22.6191C 145.834 21.834 144.879 21.4414 143.613 21.4414C 142.406 21.4414 141.434 21.8691 140.695 22.7246C 139.969 23.5684 139.547 24.6348 139.43 25.9238L 139.43 35.293L 142.295 35.7852L 142.295 38L 133.102 38L 133.102 35.7852L 135.967 35.293L 135.967 26.5918C 135.967 24.8105 135.633 23.5098 134.965 22.6895C 134.309 21.8574 133.354 21.4414 132.1 21.4414C 131.045 21.4414 130.178 21.6582 129.498 22.0918C 128.818 22.5254 128.297 23.1348 127.934 23.9199L 127.934 35.293L 130.799 35.7852L 130.799 38L 121.605 38L 121.605 35.7852ZM 166.061 28.543L 157.465 28.543L 157.465 25.8359L 166.061 25.8359L 166.061 28.543ZM 176.871 21.2129L 174.586 21.5645L 178.506 32.3926L 178.822 33.7637L 178.928 33.7637L 179.262 32.3926L 183.059 21.5645L 180.756 21.2129L 180.756 18.9805L 188.104 18.9805L 188.104 21.2129L 186.539 21.4766L 180.158 38L 177.539 38L 171.088 21.4766L 169.523 21.2129L 169.523 18.9805L 176.871 18.9805L 176.871 21.2129ZM 198.896 38.3691C 196.248 38.3691 194.139 37.4902 192.568 35.7324C 191.01 33.9629 190.23 31.6719 190.23 28.8594L 190.23 28.0859C 190.23 25.3789 191.033 23.1289 192.639 21.3359C 194.256 19.5313 196.166 18.6289 198.369 18.6289C 200.924 18.6289 202.857 19.4023 204.17 20.9492C 205.494 22.4961 206.156 24.5586 206.156 27.1367L 206.156 29.2988L 193.816 29.2988L 193.764 29.3867C 193.799 31.2148 194.262 32.7207 195.152 33.9043C 196.043 35.0762 197.291 35.6621 198.896 35.6621C 200.068 35.6621 201.094 35.498 201.973 35.1699C 202.863 34.8301 203.631 34.3672 204.275 33.7812L 205.629 36.0312C 204.949 36.6875 204.047 37.2441 202.922 37.7012C 201.809 38.1465 200.467 38.3691 198.896 38.3691ZM 198.369 21.3535C 197.209 21.3535 196.219 21.8457 195.398 22.8301C 194.578 23.8027 194.074 25.0273 193.887 26.5039L 193.922 26.5918L 202.693 26.5918L 202.693 26.1348C 202.693 24.7754 202.33 23.6387 201.604 22.7246C 200.877 21.8105 199.799 21.3535 198.369 21.3535ZM 209.584 21.2129L 209.584 18.9805L 215.543 18.9805L 215.877 21.7402C 216.416 20.7676 217.078 20.0059 217.863 19.4551C 218.66 18.9043 219.568 18.6289 220.588 18.6289C 220.857 18.6289 221.133 18.6523 221.414 18.6992C 221.707 18.7344 221.93 18.7754 222.082 18.8223L 221.625 22.0391L 219.656 21.9336C 218.742 21.9336 217.975 22.1504 217.354 22.584C 216.732 23.0059 216.252 23.6035 215.912 24.377L 215.912 35.293L 218.777 35.7852L 218.777 38L 209.584 38L 209.584 35.7852L 212.449 35.293L 212.449 21.7051L 209.584 21.2129ZM 239.045 24.957L 236.443 24.957L 235.881 22.6719C 235.459 22.2734 234.926 21.957 234.281 21.7227C 233.648 21.4766 232.928 21.3535 232.119 21.3535C 230.889 21.3535 229.975 21.623 229.377 22.1621C 228.779 22.7012 228.48 23.3516 228.48 24.1133C 228.48 24.8633 228.744 25.4551 229.271 25.8887C 229.799 26.3223 230.871 26.709 232.488 27.0488C 234.891 27.5645 236.678 28.2676 237.85 29.1582C 239.021 30.0371 239.607 31.2207 239.607 32.709C 239.607 34.3965 238.922 35.7617 237.551 36.8047C 236.191 37.8477 234.41 38.3691 232.207 38.3691C 230.766 38.3691 229.471 38.2051 228.322 37.877C 227.174 37.5371 226.148 37.0508 225.246 36.418L 225.229 32.0762L 227.83 32.0762L 228.48 34.625C 228.879 34.9883 229.418 35.252 230.098 35.416C 230.789 35.5801 231.492 35.6621 232.207 35.6621C 233.438 35.6621 234.398 35.416 235.09 34.9238C 235.793 34.4199 236.145 33.7637 236.145 32.9551C 236.145 32.1934 235.852 31.5664 235.266 31.0742C 234.691 30.582 233.596 30.1543 231.979 29.791C 229.67 29.2871 227.93 28.6016 226.758 27.7344C 225.586 26.8672 225 25.6953 225 24.2188C 225 22.6719 225.656 21.3535 226.969 20.2637C 228.293 19.1738 230.01 18.6289 232.119 18.6289C 233.561 18.6289 234.855 18.8164 236.004 19.1914C 237.152 19.5664 238.107 20.0879 238.869 20.7559L 239.045 24.957ZM 242.842 35.7852L 245.707 35.293L 245.707 21.7051L 242.842 21.2129L 242.842 18.9805L 249.17 18.9805L 249.17 35.293L 252.035 35.7852L 252.035 38L 242.842 38L 242.842 35.7852ZM 249.17 14.1113L 245.707 14.1113L 245.707 10.5781L 249.17 10.5781L 249.17 14.1113ZM 254.707 28.3145C 254.707 25.502 255.469 23.1875 256.992 21.3711C 258.516 19.543 260.584 18.6289 263.197 18.6289C 265.822 18.6289 267.896 19.5371 269.42 21.3535C 270.955 23.1699 271.723 25.4902 271.723 28.3145L 271.723 28.7012C 271.723 31.5371 270.961 33.8574 269.438 35.6621C 267.914 37.4668 265.846 38.3691 263.232 38.3691C 260.596 38.3691 258.516 37.4668 256.992 35.6621C 255.469 33.8457 254.707 31.5254 254.707 28.7012L 254.707 28.3145ZM 258.17 28.7012C 258.17 30.7168 258.592 32.3809 259.436 33.6934C 260.291 35.0059 261.557 35.6621 263.232 35.6621C 264.873 35.6621 266.121 35.0059 266.977 33.6934C 267.832 32.3809 268.26 30.7168 268.26 28.7012L 268.26 28.3145C 268.26 26.3223 267.832 24.6641 266.977 23.3398C 266.121 22.0156 264.861 21.3535 263.197 21.3535C 261.533 21.3535 260.279 22.0156 259.436 23.3398C 258.592 24.6641 258.17 26.3223 258.17 28.3145L 258.17 28.7012ZM 274.395 35.7852L 277.26 35.293L 277.26 21.7051L 274.395 21.2129L 274.395 18.9805L 280.354 18.9805L 280.6 21.8105C 281.232 20.8027 282.023 20.0234 282.973 19.4727C 283.934 18.9102 285.023 18.6289 286.242 18.6289C 288.293 18.6289 289.881 19.2324 291.006 20.4395C 292.131 21.6348 292.693 23.4863 292.693 25.9941L 292.693 35.293L 295.559 35.7852L 295.559 38L 286.365 38L 286.365 35.7852L 289.23 35.293L 289.23 26.0645C 289.23 24.3887 288.896 23.1992 288.229 22.4961C 287.572 21.793 286.564 21.4414 285.205 21.4414C 284.209 21.4414 283.324 21.6816 282.551 22.1621C 281.789 22.6426 281.18 23.2988 280.723 24.1309L 280.723 35.293L 283.588 35.7852L 283.588 38L 274.395 38L 274.395 35.7852Z"/>
<path id="path4_fill" d="M 0 5C 0 2.23858 2.23858 0 5 0L 269 0C 271.761 0 274 2.23858 274 5L 274 65C 274 67.7614 271.761 70 269 70L 5 70C 2.23858 70 0 67.7614 0 65L 0 5Z"/>
<path id="path5_fill" d="M 14.6992 28.8418C 14.6992 25.7832 15.3496 23.3164 16.6504 21.4414C 17.9629 19.5664 19.791 18.6289 22.1348 18.6289C 23.248 18.6289 24.2383 18.8398 25.1055 19.2617C 25.9727 19.6719 26.7109 20.2754 27.3203 21.0723L 27.6016 18.9805L 30.5898 18.9805L 30.5898 42.5879L 33.4551 43.0801L 33.4551 45.3125L 24.2617 45.3125L 24.2617 43.0801L 27.127 42.5879L 27.127 36.207C 26.5176 36.9219 25.791 37.4609 24.9473 37.8242C 24.1152 38.1875 23.166 38.3691 22.0996 38.3691C 19.7793 38.3691 17.9629 37.5313 16.6504 35.8555C 15.3496 34.168 14.6992 31.9531 14.6992 29.2109L 14.6992 28.8418ZM 18.1621 29.2109C 18.1621 31.1328 18.5547 32.6914 19.3398 33.8867C 20.125 35.0703 21.3379 35.6621 22.9785 35.6621C 23.9395 35.6621 24.7539 35.4512 25.4219 35.0293C 26.1016 34.6074 26.6699 34.0098 27.127 33.2363L 27.127 23.6914C 26.6699 22.9766 26.1016 22.4082 25.4219 21.9863C 24.7422 21.5645 23.9395 21.3535 23.0137 21.3535C 21.3613 21.3535 20.1367 22.0566 19.3398 23.4629C 18.5547 24.8574 18.1621 26.6504 18.1621 28.8418L 18.1621 29.2109ZM 48.6074 35.1875C 48.0098 36.207 47.2363 36.9922 46.2871 37.543C 45.3496 38.0938 44.2656 38.3691 43.0352 38.3691C 40.9727 38.3691 39.3613 37.707 38.2012 36.3828C 37.041 35.0586 36.4609 32.9961 36.4609 30.1953L 36.4609 21.7051L 34.2812 21.2129L 34.2812 18.9805L 36.4609 18.9805L 39.9238 18.9805L 39.9238 30.2305C 39.9238 32.2578 40.2227 33.6523 40.8203 34.4141C 41.418 35.1758 42.3496 35.5566 43.6152 35.5566C 44.8457 35.5566 45.8594 35.3105 46.6562 34.8184C 47.4648 34.3145 48.0742 33.6055 48.4844 32.6914L 48.4844 21.7051L 45.9355 21.2129L 45.9355 18.9805L 48.4844 18.9805L 51.9473 18.9805L 51.9473 35.293L 54.127 35.7852L 54.127 38L 48.8359 38L 48.6074 35.1875ZM 69.2793 38C 69.1738 37.4844 69.0918 37.0215 69.0332 36.6113C 68.9746 36.2012 68.9336 35.791 68.9102 35.3809C 68.2422 36.2363 67.4043 36.9512 66.3965 37.5254C 65.4004 38.0879 64.334 38.3691 63.1973 38.3691C 61.2168 38.3691 59.7109 37.8887 58.6797 36.9277C 57.6484 35.9551 57.1328 34.5898 57.1328 32.832C 57.1328 31.0273 57.8594 29.6387 59.3125 28.666C 60.7773 27.6816 62.7813 27.1895 65.3242 27.1895L 68.8926 27.1895L 68.8926 24.9746C 68.8926 23.8613 68.541 22.9824 67.8379 22.3379C 67.1348 21.6816 66.1562 21.3535 64.9023 21.3535C 64.0352 21.3535 63.2676 21.4648 62.5996 21.6875C 61.9434 21.9102 61.4102 22.2148 61 22.6016L 60.6309 24.6055L 57.959 24.6055L 57.959 20.9141C 58.8262 20.2227 59.875 19.6719 61.1055 19.2617C 62.3359 18.8398 63.6719 18.6289 65.1133 18.6289C 67.2695 18.6289 69.0156 19.1797 70.3516 20.2812C 71.6875 21.3828 72.3555 22.959 72.3555 25.0098L 72.3555 34.168C 72.3555 34.4141 72.3555 34.6543 72.3555 34.8887C 72.3672 35.123 72.3848 35.3574 72.4082 35.5918L 73.8145 35.7852L 73.8145 38L 69.2793 38ZM 63.707 35.4688C 64.8555 35.4688 65.9043 35.1934 66.8535 34.6426C 67.8027 34.0918 68.4824 33.4297 68.8926 32.6562L 68.8926 29.5273L 65.2012 29.5273C 63.7832 29.5273 62.6582 29.8555 61.8262 30.5117C 61.0059 31.168 60.5957 31.9648 60.5957 32.9023C 60.5957 33.7344 60.8535 34.373 61.3691 34.8184C 61.8848 35.252 62.6641 35.4688 63.707 35.4688ZM 76.1875 35.7852L 79.0527 35.293L 79.0527 21.7051L 76.1875 21.2129L 76.1875 18.9805L 82.1465 18.9805L 82.3926 21.8105C 83.0254 20.8027 83.8164 20.0234 84.7656 19.4727C 85.7266 18.9102 86.8164 18.6289 88.0352 18.6289C 90.0859 18.6289 91.6738 19.2324 92.7988 20.4395C 93.9238 21.6348 94.4863 23.4863 94.4863 25.9941L 94.4863 35.293L 97.3516 35.7852L 97.3516 38L 88.1582 38L 88.1582 35.7852L 91.0234 35.293L 91.0234 26.0645C 91.0234 24.3887 90.6895 23.1992 90.0215 22.4961C 89.3652 21.793 88.3574 21.4414 86.998 21.4414C 86.002 21.4414 85.1172 21.6816 84.3438 22.1621C 83.582 22.6426 82.9727 23.2988 82.5156 24.1309L 82.5156 35.293L 85.3809 35.7852L 85.3809 38L 76.1875 38L 76.1875 35.7852ZM 105.912 14.3926L 105.912 18.9805L 109.516 18.9805L 109.516 21.5469L 105.912 21.5469L 105.912 33.0957C 105.912 33.9863 106.094 34.6133 106.457 34.9766C 106.832 35.3398 107.324 35.5215 107.934 35.5215C 108.238 35.5215 108.578 35.498 108.953 35.4512C 109.34 35.3926 109.662 35.334 109.92 35.2754L 110.395 37.6484C 110.066 37.8594 109.586 38.0293 108.953 38.1582C 108.32 38.2988 107.688 38.3691 107.055 38.3691C 105.648 38.3691 104.529 37.9473 103.697 37.1035C 102.865 36.248 102.449 34.9121 102.449 33.0957L 102.449 21.5469L 99.4434 21.5469L 99.4434 18.9805L 102.449 18.9805L 102.449 14.3926L 105.912 14.3926ZM 126.654 35.1875C 126.057 36.207 125.283 36.9922 124.334 37.543C 123.396 38.0938 122.312 38.3691 121.082 38.3691C 119.02 38.3691 117.408 37.707 116.248 36.3828C 115.088 35.0586 114.508 32.9961 114.508 30.1953L 114.508 21.7051L 112.328 21.2129L 112.328 18.9805L 114.508 18.9805L 117.971 18.9805L 117.971 30.2305C 117.971 32.2578 118.27 33.6523 118.867 34.4141C 119.465 35.1758 120.396 35.5566 121.662 35.5566C 122.893 35.5566 123.906 35.3105 124.703 34.8184C 125.512 34.3145 126.121 33.6055 126.531 32.6914L 126.531 21.7051L 123.982 21.2129L 123.982 18.9805L 126.531 18.9805L 129.994 18.9805L 129.994 35.293L 132.174 35.7852L 132.174 38L 126.883 38L 126.654 35.1875ZM 134.23 35.7852L 137.096 35.293L 137.096 21.7051L 134.23 21.2129L 134.23 18.9805L 140.207 18.9805L 140.436 21.459C 141.045 20.5566 141.83 19.8594 142.791 19.3672C 143.752 18.875 144.865 18.6289 146.131 18.6289C 147.396 18.6289 148.48 18.9219 149.383 19.5078C 150.297 20.0937 150.982 20.9727 151.439 22.1445C 152.037 21.0664 152.828 20.2109 153.812 19.5781C 154.797 18.9453 155.945 18.6289 157.258 18.6289C 159.203 18.6289 160.738 19.2969 161.863 20.6328C 162.988 21.957 163.551 23.9551 163.551 26.627L 163.551 35.293L 166.416 35.7852L 166.416 38L 157.205 38L 157.205 35.7852L 160.07 35.293L 160.07 26.5918C 160.07 24.7168 159.748 23.3926 159.104 22.6191C 158.459 21.834 157.504 21.4414 156.238 21.4414C 155.031 21.4414 154.059 21.8691 153.32 22.7246C 152.594 23.5684 152.172 24.6348 152.055 25.9238L 152.055 35.293L 154.92 35.7852L 154.92 38L 145.727 38L 145.727 35.7852L 148.592 35.293L 148.592 26.5918C 148.592 24.8105 148.258 23.5098 147.59 22.6895C 146.934 21.8574 145.979 21.4414 144.725 21.4414C 143.67 21.4414 142.803 21.6582 142.123 22.0918C 141.443 22.5254 140.922 23.1348 140.559 23.9199L 140.559 35.293L 143.424 35.7852L 143.424 38L 134.23 38L 134.23 35.7852ZM 178.686 28.543L 170.09 28.543L 170.09 25.8359L 178.686 25.8359L 178.686 28.543ZM 195.385 38C 195.279 37.4844 195.197 37.0215 195.139 36.6113C 195.08 36.2012 195.039 35.791 195.016 35.3809C 194.348 36.2363 193.51 36.9512 192.502 37.5254C 191.506 38.0879 190.439 38.3691 189.303 38.3691C 187.322 38.3691 185.816 37.8887 184.785 36.9277C 183.754 35.9551 183.238 34.5898 183.238 32.832C 183.238 31.0273 183.965 29.6387 185.418 28.666C 186.883 27.6816 188.887 27.1895 191.43 27.1895L 194.998 27.1895L 194.998 24.9746C 194.998 23.8613 194.646 22.9824 193.943 22.3379C 193.24 21.6816 192.262 21.3535 191.008 21.3535C 190.141 21.3535 189.373 21.4648 188.705 21.6875C 188.049 21.9102 187.516 22.2148 187.105 22.6016L 186.736 24.6055L 184.064 24.6055L 184.064 20.9141C 184.932 20.2227 185.98 19.6719 187.211 19.2617C 188.441 18.8398 189.777 18.6289 191.219 18.6289C 193.375 18.6289 195.121 19.1797 196.457 20.2812C 197.793 21.3828 198.461 22.959 198.461 25.0098L 198.461 34.168C 198.461 34.4141 198.461 34.6543 198.461 34.8887C 198.473 35.123 198.49 35.3574 198.514 35.5918L 199.92 35.7852L 199.92 38L 195.385 38ZM 189.812 35.4688C 190.961 35.4688 192.01 35.1934 192.959 34.6426C 193.908 34.0918 194.588 33.4297 194.998 32.6562L 194.998 29.5273L 191.307 29.5273C 189.889 29.5273 188.764 29.8555 187.932 30.5117C 187.111 31.168 186.701 31.9648 186.701 32.9023C 186.701 33.7344 186.959 34.373 187.475 34.8184C 187.99 35.252 188.77 35.4688 189.812 35.4688ZM 202.381 43.0801L 205.246 42.5879L 205.246 21.7051L 202.381 21.2129L 202.381 18.9805L 208.217 18.9805L 208.533 21.3008C 209.166 20.4336 209.934 19.7715 210.836 19.3145C 211.75 18.8574 212.805 18.6289 214 18.6289C 216.355 18.6289 218.184 19.5664 219.484 21.4414C 220.797 23.3047 221.453 25.7715 221.453 28.8418L 221.453 29.2109C 221.453 31.9531 220.797 34.168 219.484 35.8555C 218.172 37.5313 216.361 38.3691 214.053 38.3691C 212.881 38.3691 211.85 38.1758 210.959 37.7891C 210.08 37.3906 209.33 36.8047 208.709 36.0312L 208.709 42.5879L 211.574 43.0801L 211.574 45.3125L 202.381 45.3125L 202.381 43.0801ZM 217.973 28.8418C 217.973 26.6738 217.551 24.8984 216.707 23.5156C 215.863 22.1328 214.609 21.4414 212.945 21.4414C 211.961 21.4414 211.117 21.6641 210.414 22.1094C 209.711 22.5547 209.143 23.1641 208.709 23.9375L 208.709 33.2012C 209.143 33.9863 209.705 34.5957 210.396 35.0293C 211.1 35.4512 211.961 35.6621 212.98 35.6621C 214.621 35.6621 215.863 35.0645 216.707 33.8691C 217.551 32.6738 217.973 31.1211 217.973 29.2109L 217.973 28.8418ZM 224.6 35.7852L 227.465 35.293L 227.465 21.7051L 224.6 21.2129L 224.6 18.9805L 230.928 18.9805L 230.928 35.293L 233.793 35.7852L 233.793 38L 224.6 38L 224.6 35.7852ZM 230.928 14.1113L 227.465 14.1113L 227.465 10.5781L 230.928 10.5781L 230.928 14.1113Z"/>
<path id="path6_fill" d="M 0 5C 0 2.23858 2.23858 0 5 0L 299 0C 301.761 0 304 2.23858 304 5L 304 65C 304 67.7614 301.761 70 299 70L 5 70C 2.23858 70 0 67.7614 0 65L 0 5Z"/>
<path id="path7_fill" d="M 41.0699 21.2129L 39.3648 21.4766L 32.1226 40.918C 31.6422 42.1953 30.9507 43.3086 30.0484 44.2578C 29.1461 45.207 27.9332 45.6816 26.4097 45.6816C 26.1402 45.6816 25.7886 45.6465 25.355 45.5762C 24.9214 45.5176 24.5875 45.459 24.3531 45.4004L 24.7047 42.6758C 24.6343 42.6641 24.8394 42.6758 25.3199 42.7109C 25.8121 42.7461 26.1226 42.7637 26.2515 42.7637C 26.9898 42.7637 27.5875 42.4414 28.0445 41.7969C 28.5015 41.1641 28.9 40.4316 29.2398 39.5996L 30.066 37.6309L 23.7906 21.4941L 22.0504 21.2129L 22.0504 18.9805L 29.732 18.9805L 29.732 21.2129L 27.5875 21.5645L 30.8746 30.9512L 31.5074 33.377L 31.6129 33.377L 35.5679 21.5645L 33.4058 21.2129L 33.4058 18.9805L 41.0699 18.9805L 41.0699 21.2129ZM 43.1617 28.3145C 43.1617 25.502 43.9234 23.1875 45.4468 21.3711C 46.9703 19.543 49.0386 18.6289 51.6519 18.6289C 54.2769 18.6289 56.3511 19.5371 57.8746 21.3535C 59.4097 23.1699 60.1773 25.4902 60.1773 28.3145L 60.1773 28.7012C 60.1773 31.5371 59.4156 33.8574 57.8922 35.6621C 56.3687 37.4668 54.3004 38.3691 51.6871 38.3691C 49.0504 38.3691 46.9703 37.4668 45.4468 35.6621C 43.9234 33.8457 43.1617 31.5254 43.1617 28.7012L 43.1617 28.3145ZM 46.6246 28.7012C 46.6246 30.7168 47.0464 32.3809 47.8902 33.6934C 48.7457 35.0059 50.0113 35.6621 51.6871 35.6621C 53.3277 35.6621 54.5757 35.0059 55.4312 33.6934C 56.2867 32.3809 56.7144 30.7168 56.7144 28.7012L 56.7144 28.3145C 56.7144 26.3223 56.2867 24.6641 55.4312 23.3398C 54.5757 22.0156 53.316 21.3535 51.6519 21.3535C 49.9879 21.3535 48.7339 22.0156 47.8902 23.3398C 47.0464 24.6641 46.6246 26.3223 46.6246 28.3145L 46.6246 28.7012ZM 76.9644 35.1875C 76.3668 36.207 75.5933 36.9922 74.6441 37.543C 73.7066 38.0938 72.6226 38.3691 71.3922 38.3691C 69.3297 38.3691 67.7183 37.707 66.5582 36.3828C 65.398 35.0586 64.8179 32.9961 64.8179 30.1953L 64.8179 21.7051L 62.6382 21.2129L 62.6382 18.9805L 64.8179 18.9805L 68.2808 18.9805L 68.2808 30.2305C 68.2808 32.2578 68.5797 33.6523 69.1773 34.4141C 69.775 35.1758 70.7066 35.5566 71.9722 35.5566C 73.2027 35.5566 74.2164 35.3105 75.0132 34.8184C 75.8218 34.3145 76.4312 33.6055 76.8414 32.6914L 76.8414 21.7051L 74.2925 21.2129L 74.2925 18.9805L 76.8414 18.9805L 80.3043 18.9805L 80.3043 35.293L 82.4839 35.7852L 82.4839 38L 77.1929 38L 76.9644 35.1875ZM 85.2261 21.2129L 85.2261 18.9805L 91.1851 18.9805L 91.5191 21.7402C 92.0582 20.7676 92.7203 20.0059 93.5054 19.4551C 94.3023 18.9043 95.2105 18.6289 96.23 18.6289C 96.4996 18.6289 96.775 18.6523 97.0562 18.6992C 97.3492 18.7344 97.5718 18.7754 97.7242 18.8223L 97.2672 22.0391L 95.2984 21.9336C 94.3843 21.9336 93.6168 22.1504 92.9957 22.584C 92.3746 23.0059 91.8941 23.6035 91.5543 24.377L 91.5543 35.293L 94.4195 35.7852L 94.4195 38L 85.2261 38L 85.2261 35.7852L 88.0914 35.293L 88.0914 21.7051L 85.2261 21.2129ZM 109.871 28.543L 101.275 28.543L 101.275 25.8359L 109.871 25.8359L 109.871 28.543ZM 122.843 38.3691C 120.195 38.3691 118.086 37.4902 116.515 35.7324C 114.957 33.9629 114.177 31.6719 114.177 28.8594L 114.177 28.0859C 114.177 25.3789 114.98 23.1289 116.586 21.3359C 118.203 19.5313 120.113 18.6289 122.316 18.6289C 124.871 18.6289 126.804 19.4023 128.117 20.9492C 129.441 22.4961 130.103 24.5586 130.103 27.1367L 130.103 29.2988L 117.763 29.2988L 117.711 29.3867C 117.746 31.2148 118.209 32.7207 119.099 33.9043C 119.99 35.0762 121.238 35.6621 122.843 35.6621C 124.015 35.6621 125.041 35.498 125.919 35.1699C 126.81 34.8301 127.578 34.3672 128.222 33.7812L 129.576 36.0312C 128.896 36.6875 127.994 37.2441 126.869 37.7012C 125.755 38.1465 124.414 38.3691 122.843 38.3691ZM 122.316 21.3535C 121.156 21.3535 120.166 21.8457 119.345 22.8301C 118.525 23.8027 118.021 25.0273 117.834 26.5039L 117.869 26.5918L 126.64 26.5918L 126.64 26.1348C 126.64 24.7754 126.277 23.6387 125.55 22.7246C 124.824 21.8105 123.746 21.3535 122.316 21.3535ZM 133.056 35.7852L 135.095 35.3809L 140.703 28.3848L 135.271 21.6172L 133.232 21.2129L 133.232 18.9805L 140.685 18.9805L 140.685 21.2129L 138.962 21.4238L 142.513 25.9941L 146.082 21.4062L 144.377 21.2129L 144.377 18.9805L 151.882 18.9805L 151.882 21.2129L 149.843 21.6172L 144.412 28.3848L 150.002 35.3809L 152.058 35.7852L 152.058 38L 144.605 38L 144.605 35.7852L 146.293 35.5918L 142.566 30.8105L 138.839 35.5918L 140.544 35.7852L 140.544 38L 133.056 38L 133.056 35.7852ZM 160.531 14.3926L 160.531 18.9805L 164.134 18.9805L 164.134 21.5469L 160.531 21.5469L 160.531 33.0957C 160.531 33.9863 160.712 34.6133 161.076 34.9766C 161.451 35.3398 161.943 35.5215 162.552 35.5215C 162.857 35.5215 163.197 35.498 163.572 35.4512C 163.959 35.3926 164.281 35.334 164.539 35.2754L 165.013 37.6484C 164.685 37.8594 164.205 38.0293 163.572 38.1582C 162.939 38.2988 162.306 38.3691 161.673 38.3691C 160.267 38.3691 159.148 37.9473 158.316 37.1035C 157.484 36.248 157.068 34.9121 157.068 33.0957L 157.068 21.5469L 154.062 21.5469L 154.062 18.9805L 157.068 18.9805L 157.068 14.3926L 160.531 14.3926ZM 176.351 38.3691C 173.703 38.3691 171.593 37.4902 170.023 35.7324C 168.464 33.9629 167.685 31.6719 167.685 28.8594L 167.685 28.0859C 167.685 25.3789 168.488 23.1289 170.093 21.3359C 171.711 19.5313 173.621 18.6289 175.824 18.6289C 178.378 18.6289 180.312 19.4023 181.625 20.9492C 182.949 22.4961 183.611 24.5586 183.611 27.1367L 183.611 29.2988L 171.271 29.2988L 171.218 29.3867C 171.253 31.2148 171.716 32.7207 172.607 33.9043C 173.498 35.0762 174.746 35.6621 176.351 35.6621C 177.523 35.6621 178.548 35.498 179.427 35.1699C 180.318 34.8301 181.086 34.3672 181.73 33.7812L 183.084 36.0312C 182.404 36.6875 181.502 37.2441 180.377 37.7012C 179.263 38.1465 177.921 38.3691 176.351 38.3691ZM 175.824 21.3535C 174.664 21.3535 173.673 21.8457 172.853 22.8301C 172.033 23.8027 171.529 25.0273 171.341 26.5039L 171.377 26.5918L 180.148 26.5918L 180.148 26.1348C 180.148 24.7754 179.785 23.6387 179.058 22.7246C 178.332 21.8105 177.253 21.3535 175.824 21.3535ZM 186.529 35.7852L 189.394 35.293L 189.394 21.7051L 186.529 21.2129L 186.529 18.9805L 192.488 18.9805L 192.734 21.8105C 193.367 20.8027 194.158 20.0234 195.107 19.4727C 196.068 18.9102 197.158 18.6289 198.377 18.6289C 200.427 18.6289 202.015 19.2324 203.14 20.4395C 204.265 21.6348 204.828 23.4863 204.828 25.9941L 204.828 35.293L 207.693 35.7852L 207.693 38L 198.5 38L 198.5 35.7852L 201.365 35.293L 201.365 26.0645C 201.365 24.3887 201.031 23.1992 200.363 22.4961C 199.707 21.793 198.699 21.4414 197.339 21.4414C 196.343 21.4414 195.459 21.6816 194.685 22.1621C 193.923 22.6426 193.314 23.2988 192.857 24.1309L 192.857 35.293L 195.722 35.7852L 195.722 38L 186.529 38L 186.529 35.7852ZM 224.761 24.957L 222.16 24.957L 221.597 22.6719C 221.175 22.2734 220.642 21.957 219.998 21.7227C 219.365 21.4766 218.644 21.3535 217.836 21.3535C 216.605 21.3535 215.691 21.623 215.093 22.1621C 214.496 22.7012 214.197 23.3516 214.197 24.1133C 214.197 24.8633 214.461 25.4551 214.988 25.8887C 215.515 26.3223 216.587 26.709 218.205 27.0488C 220.607 27.5645 222.394 28.2676 223.566 29.1582C 224.738 30.0371 225.324 31.2207 225.324 32.709C 225.324 34.3965 224.638 35.7617 223.267 36.8047C 221.908 37.8477 220.127 38.3691 217.923 38.3691C 216.482 38.3691 215.187 38.2051 214.039 37.877C 212.89 37.5371 211.865 37.0508 210.962 36.418L 210.945 32.0762L 213.546 32.0762L 214.197 34.625C 214.595 34.9883 215.134 35.252 215.814 35.416C 216.505 35.5801 217.209 35.6621 217.923 35.6621C 219.154 35.6621 220.115 35.416 220.806 34.9238C 221.509 34.4199 221.861 33.7637 221.861 32.9551C 221.861 32.1934 221.568 31.5664 220.982 31.0742C 220.408 30.582 219.312 30.1543 217.695 29.791C 215.386 29.2871 213.646 28.6016 212.474 27.7344C 211.302 26.8672 210.716 25.6953 210.716 24.2188C 210.716 22.6719 211.373 21.3535 212.685 20.2637C 214.009 19.1738 215.726 18.6289 217.836 18.6289C 219.277 18.6289 220.572 18.8164 221.72 19.1914C 222.869 19.5664 223.824 20.0879 224.586 20.7559L 224.761 24.957ZM 228.558 35.7852L 231.423 35.293L 231.423 21.7051L 228.558 21.2129L 228.558 18.9805L 234.886 18.9805L 234.886 35.293L 237.752 35.7852L 237.752 38L 228.558 38L 228.558 35.7852ZM 234.886 14.1113L 231.423 14.1113L 231.423 10.5781L 234.886 10.5781L 234.886 14.1113ZM 240.423 28.3145C 240.423 25.502 241.185 23.1875 242.709 21.3711C 244.232 19.543 246.3 18.6289 248.914 18.6289C 251.539 18.6289 253.613 19.5371 255.136 21.3535C 256.671 23.1699 257.439 25.4902 257.439 28.3145L 257.439 28.7012C 257.439 31.5371 256.677 33.8574 255.154 35.6621C 253.63 37.4668 251.562 38.3691 248.949 38.3691C 246.312 38.3691 244.232 37.4668 242.709 35.6621C 241.185 33.8457 240.423 31.5254 240.423 28.7012L 240.423 28.3145ZM 243.886 28.7012C 243.886 30.7168 244.308 32.3809 245.152 33.6934C 246.007 35.0059 247.273 35.6621 248.949 35.6621C 250.589 35.6621 251.837 35.0059 252.693 33.6934C 253.548 32.3809 253.976 30.7168 253.976 28.7012L 253.976 28.3145C 253.976 26.3223 253.548 24.6641 252.693 23.3398C 251.837 22.0156 250.578 21.3535 248.914 21.3535C 247.25 21.3535 245.996 22.0156 245.152 23.3398C 244.308 24.6641 243.886 26.3223 243.886 28.3145L 243.886 28.7012ZM 260.111 35.7852L 262.976 35.293L 262.976 21.7051L 260.111 21.2129L 260.111 18.9805L 266.07 18.9805L 266.316 21.8105C 266.949 20.8027 267.74 20.0234 268.689 19.4727C 269.65 18.9102 270.74 18.6289 271.959 18.6289C 274.009 18.6289 275.597 19.2324 276.722 20.4395C 277.847 21.6348 278.41 23.4863 278.41 25.9941L 278.41 35.293L 281.275 35.7852L 281.275 38L 272.082 38L 272.082 35.7852L 274.947 35.293L 274.947 26.0645C 274.947 24.3887 274.613 23.1992 273.945 22.4961C 273.289 21.793 272.281 21.4414 270.921 21.4414C 269.925 21.4414 269.041 21.6816 268.267 22.1621C 267.505 22.6426 266.896 23.2988 266.439 24.1309L 266.439 35.293L 269.304 35.7852L 269.304 38L 260.111 38L 260.111 35.7852Z"/>
<path id="path8_fill" d="M 0 5C 0 2.23858 2.23858 0 5 0L 383 0C 385.761 0 388 2.23858 388 5L 388 64C 388 66.7614 385.761 69 383 69L 5 69C 2.23858 69 0 66.7614 0 64L 0 5Z"/>
<path id="path9_fill" d="M 2.0625 28.8418C 2.0625 25.7832 2.71289 23.3164 4.01367 21.4414C 5.32617 19.5664 7.1543 18.6289 9.49805 18.6289C 10.6113 18.6289 11.6016 18.8398 12.4688 19.2617C 13.3359 19.6719 14.0742 20.2754 14.6836 21.0723L 14.9648 18.9805L 17.9531 18.9805L 17.9531 42.5879L 20.8184 43.0801L 20.8184 45.3125L 11.625 45.3125L 11.625 43.0801L 14.4902 42.5879L 14.4902 36.207C 13.8809 36.9219 13.1543 37.4609 12.3105 37.8242C 11.4785 38.1875 10.5293 38.3691 9.46289 38.3691C 7.14258 38.3691 5.32617 37.5313 4.01367 35.8555C 2.71289 34.168 2.0625 31.9531 2.0625 29.2109L 2.0625 28.8418ZM 5.52539 29.2109C 5.52539 31.1328 5.91797 32.6914 6.70312 33.8867C 7.48828 35.0703 8.70117 35.6621 10.3418 35.6621C 11.3027 35.6621 12.1172 35.4512 12.7852 35.0293C 13.4648 34.6074 14.0332 34.0098 14.4902 33.2363L 14.4902 23.6914C 14.0332 22.9766 13.4648 22.4082 12.7852 21.9863C 12.1055 21.5645 11.3027 21.3535 10.377 21.3535C 8.72461 21.3535 7.5 22.0566 6.70312 23.4629C 5.91797 24.8574 5.52539 26.6504 5.52539 28.8418L 5.52539 29.2109ZM 35.9707 35.1875C 35.373 36.207 34.5996 36.9922 33.6504 37.543C 32.7129 38.0938 31.6289 38.3691 30.3984 38.3691C 28.3359 38.3691 26.7246 37.707 25.5645 36.3828C 24.4043 35.0586 23.8242 32.9961 23.8242 30.1953L 23.8242 21.7051L 21.6445 21.2129L 21.6445 18.9805L 23.8242 18.9805L 27.2871 18.9805L 27.2871 30.2305C 27.2871 32.2578 27.5859 33.6523 28.1836 34.4141C 28.7812 35.1758 29.7129 35.5566 30.9785 35.5566C 32.209 35.5566 33.2227 35.3105 34.0195 34.8184C 34.8281 34.3145 35.4375 33.6055 35.8477 32.6914L 35.8477 21.7051L 33.2988 21.2129L 33.2988 18.9805L 35.8477 18.9805L 39.3105 18.9805L 39.3105 35.293L 41.4902 35.7852L 41.4902 38L 36.1992 38L 35.9707 35.1875ZM 56.6426 38C 56.5371 37.4844 56.4551 37.0215 56.3965 36.6113C 56.3379 36.2012 56.2969 35.791 56.2734 35.3809C 55.6055 36.2363 54.7676 36.9512 53.7598 37.5254C 52.7637 38.0879 51.6973 38.3691 50.5605 38.3691C 48.5801 38.3691 47.0742 37.8887 46.043 36.9277C 45.0117 35.9551 44.4961 34.5898 44.4961 32.832C 44.4961 31.0273 45.2227 29.6387 46.6758 28.666C 48.1406 27.6816 50.1445 27.1895 52.6875 27.1895L 56.2559 27.1895L 56.2559 24.9746C 56.2559 23.8613 55.9043 22.9824 55.2012 22.3379C 54.498 21.6816 53.5195 21.3535 52.2656 21.3535C 51.3984 21.3535 50.6309 21.4648 49.9629 21.6875C 49.3066 21.9102 48.7734 22.2148 48.3633 22.6016L 47.9941 24.6055L 45.3223 24.6055L 45.3223 20.9141C 46.1895 20.2227 47.2383 19.6719 48.4688 19.2617C 49.6992 18.8398 51.0352 18.6289 52.4766 18.6289C 54.6328 18.6289 56.3789 19.1797 57.7148 20.2812C 59.0508 21.3828 59.7188 22.959 59.7188 25.0098L 59.7188 34.168C 59.7188 34.4141 59.7188 34.6543 59.7188 34.8887C 59.7305 35.123 59.748 35.3574 59.7715 35.5918L 61.1777 35.7852L 61.1777 38L 56.6426 38ZM 51.0703 35.4688C 52.2187 35.4688 53.2676 35.1934 54.2168 34.6426C 55.166 34.0918 55.8457 33.4297 56.2559 32.6562L 56.2559 29.5273L 52.5645 29.5273C 51.1465 29.5273 50.0215 29.8555 49.1895 30.5117C 48.3691 31.168 47.959 31.9648 47.959 32.9023C 47.959 33.7344 48.2168 34.373 48.7324 34.8184C 49.248 35.252 50.0273 35.4688 51.0703 35.4688ZM 63.5508 35.7852L 66.416 35.293L 66.416 21.7051L 63.5508 21.2129L 63.5508 18.9805L 69.5098 18.9805L 69.7559 21.8105C 70.3887 20.8027 71.1797 20.0234 72.1289 19.4727C 73.0898 18.9102 74.1797 18.6289 75.3984 18.6289C 77.4492 18.6289 79.0371 19.2324 80.1621 20.4395C 81.2871 21.6348 81.8496 23.4863 81.8496 25.9941L 81.8496 35.293L 84.7148 35.7852L 84.7148 38L 75.5215 38L 75.5215 35.7852L 78.3867 35.293L 78.3867 26.0645C 78.3867 24.3887 78.0527 23.1992 77.3848 22.4961C 76.7285 21.793 75.7207 21.4414 74.3613 21.4414C 73.3652 21.4414 72.4805 21.6816 71.707 22.1621C 70.9453 22.6426 70.3359 23.2988 69.8789 24.1309L 69.8789 35.293L 72.7441 35.7852L 72.7441 38L 63.5508 38L 63.5508 35.7852ZM 93.2754 14.3926L 93.2754 18.9805L 96.8789 18.9805L 96.8789 21.5469L 93.2754 21.5469L 93.2754 33.0957C 93.2754 33.9863 93.457 34.6133 93.8203 34.9766C 94.1953 35.3398 94.6875 35.5215 95.2969 35.5215C 95.6016 35.5215 95.9414 35.498 96.3164 35.4512C 96.7031 35.3926 97.0254 35.334 97.2832 35.2754L 97.7578 37.6484C 97.4297 37.8594 96.9492 38.0293 96.3164 38.1582C 95.6836 38.2988 95.0508 38.3691 94.418 38.3691C 93.0117 38.3691 91.8926 37.9473 91.0605 37.1035C 90.2285 36.248 89.8125 34.9121 89.8125 33.0957L 89.8125 21.5469L 86.8066 21.5469L 86.8066 18.9805L 89.8125 18.9805L 89.8125 14.3926L 93.2754 14.3926ZM 114.018 35.1875C 113.42 36.207 112.646 36.9922 111.697 37.543C 110.76 38.0938 109.676 38.3691 108.445 38.3691C 106.383 38.3691 104.771 37.707 103.611 36.3828C 102.451 35.0586 101.871 32.9961 101.871 30.1953L 101.871 21.7051L 99.6914 21.2129L 99.6914 18.9805L 101.871 18.9805L 105.334 18.9805L 105.334 30.2305C 105.334 32.2578 105.633 33.6523 106.23 34.4141C 106.828 35.1758 107.76 35.5566 109.025 35.5566C 110.256 35.5566 111.27 35.3105 112.066 34.8184C 112.875 34.3145 113.484 33.6055 113.895 32.6914L 113.895 21.7051L 111.346 21.2129L 111.346 18.9805L 113.895 18.9805L 117.357 18.9805L 117.357 35.293L 119.537 35.7852L 119.537 38L 114.246 38L 114.018 35.1875ZM 121.594 35.7852L 124.459 35.293L 124.459 21.7051L 121.594 21.2129L 121.594 18.9805L 127.57 18.9805L 127.799 21.459C 128.408 20.5566 129.193 19.8594 130.154 19.3672C 131.115 18.875 132.229 18.6289 133.494 18.6289C 134.76 18.6289 135.844 18.9219 136.746 19.5078C 137.66 20.0937 138.346 20.9727 138.803 22.1445C 139.4 21.0664 140.191 20.2109 141.176 19.5781C 142.16 18.9453 143.309 18.6289 144.621 18.6289C 146.566 18.6289 148.102 19.2969 149.227 20.6328C 150.352 21.957 150.914 23.9551 150.914 26.627L 150.914 35.293L 153.779 35.7852L 153.779 38L 144.568 38L 144.568 35.7852L 147.434 35.293L 147.434 26.5918C 147.434 24.7168 147.111 23.3926 146.467 22.6191C 145.822 21.834 144.867 21.4414 143.602 21.4414C 142.395 21.4414 141.422 21.8691 140.684 22.7246C 139.957 23.5684 139.535 24.6348 139.418 25.9238L 139.418 35.293L 142.283 35.7852L 142.283 38L 133.09 38L 133.09 35.7852L 135.955 35.293L 135.955 26.5918C 135.955 24.8105 135.621 23.5098 134.953 22.6895C 134.297 21.8574 133.342 21.4414 132.088 21.4414C 131.033 21.4414 130.166 21.6582 129.486 22.0918C 128.807 22.5254 128.285 23.1348 127.922 23.9199L 127.922 35.293L 130.787 35.7852L 130.787 38L 121.594 38L 121.594 35.7852ZM 166.049 28.543L 157.453 28.543L 157.453 25.8359L 166.049 25.8359L 166.049 28.543ZM 169.652 35.7852L 172.518 35.293L 172.518 21.7051L 169.652 21.2129L 169.652 18.9805L 175.629 18.9805L 175.857 21.459C 176.467 20.5566 177.252 19.8594 178.213 19.3672C 179.174 18.875 180.287 18.6289 181.553 18.6289C 182.818 18.6289 183.902 18.9219 184.805 19.5078C 185.719 20.0937 186.404 20.9727 186.861 22.1445C 187.459 21.0664 188.25 20.2109 189.234 19.5781C 190.219 18.9453 191.367 18.6289 192.68 18.6289C 194.625 18.6289 196.16 19.2969 197.285 20.6328C 198.41 21.957 198.973 23.9551 198.973 26.627L 198.973 35.293L 201.838 35.7852L 201.838 38L 192.627 38L 192.627 35.7852L 195.492 35.293L 195.492 26.5918C 195.492 24.7168 195.17 23.3926 194.525 22.6191C 193.881 21.834 192.926 21.4414 191.66 21.4414C 190.453 21.4414 189.48 21.8691 188.742 22.7246C 188.016 23.5684 187.594 24.6348 187.477 25.9238L 187.477 35.293L 190.342 35.7852L 190.342 38L 181.148 38L 181.148 35.7852L 184.014 35.293L 184.014 26.5918C 184.014 24.8105 183.68 23.5098 183.012 22.6895C 182.355 21.8574 181.4 21.4414 180.146 21.4414C 179.092 21.4414 178.225 21.6582 177.545 22.0918C 176.865 22.5254 176.344 23.1348 175.98 23.9199L 175.98 35.293L 178.846 35.7852L 178.846 38L 169.652 38L 169.652 35.7852ZM 216.779 38C 216.674 37.4844 216.592 37.0215 216.533 36.6113C 216.475 36.2012 216.434 35.791 216.41 35.3809C 215.742 36.2363 214.904 36.9512 213.896 37.5254C 212.9 38.0879 211.834 38.3691 210.697 38.3691C 208.717 38.3691 207.211 37.8887 206.18 36.9277C 205.148 35.9551 204.633 34.5898 204.633 32.832C 204.633 31.0273 205.359 29.6387 206.812 28.666C 208.277 27.6816 210.281 27.1895 212.824 27.1895L 216.393 27.1895L 216.393 24.9746C 216.393 23.8613 216.041 22.9824 215.338 22.3379C 214.635 21.6816 213.656 21.3535 212.402 21.3535C 211.535 21.3535 210.768 21.4648 210.1 21.6875C 209.443 21.9102 208.91 22.2148 208.5 22.6016L 208.131 24.6055L 205.459 24.6055L 205.459 20.9141C 206.326 20.2227 207.375 19.6719 208.605 19.2617C 209.836 18.8398 211.172 18.6289 212.613 18.6289C 214.77 18.6289 216.516 19.1797 217.852 20.2812C 219.188 21.3828 219.855 22.959 219.855 25.0098L 219.855 34.168C 219.855 34.4141 219.855 34.6543 219.855 34.8887C 219.867 35.123 219.885 35.3574 219.908 35.5918L 221.314 35.7852L 221.314 38L 216.779 38ZM 211.207 35.4688C 212.355 35.4688 213.404 35.1934 214.354 34.6426C 215.303 34.0918 215.982 33.4297 216.393 32.6562L 216.393 29.5273L 212.701 29.5273C 211.283 29.5273 210.158 29.8555 209.326 30.5117C 208.506 31.168 208.096 31.9648 208.096 32.9023C 208.096 33.7344 208.354 34.373 208.869 34.8184C 209.385 35.252 210.164 35.4688 211.207 35.4688ZM 224.197 21.2129L 224.197 18.9805L 230.156 18.9805L 230.49 21.7402C 231.029 20.7676 231.691 20.0059 232.477 19.4551C 233.273 18.9043 234.182 18.6289 235.201 18.6289C 235.471 18.6289 235.746 18.6523 236.027 18.6992C 236.32 18.7344 236.543 18.7754 236.695 18.8223L 236.238 22.0391L 234.27 21.9336C 233.355 21.9336 232.588 22.1504 231.967 22.584C 231.346 23.0059 230.865 23.6035 230.525 24.377L 230.525 35.293L 233.391 35.7852L 233.391 38L 224.197 38L 224.197 35.7852L 227.062 35.293L 227.062 21.7051L 224.197 21.2129ZM 238.277 12.8105L 238.277 10.5781L 244.605 10.5781L 244.605 26.4688L 246.82 26.4688L 250.881 21.4414L 249.141 21.2129L 249.141 18.9805L 257.104 18.9805L 257.104 21.2129L 254.783 21.6699L 249.773 27.6465L 255.873 35.3633L 258.035 35.7852L 258.035 38L 250.143 38L 250.143 35.7852L 251.918 35.5566L 246.873 29.2285L 244.605 29.2285L 244.605 35.293L 247.471 35.7852L 247.471 38L 238.277 38L 238.277 35.7852L 241.143 35.293L 241.143 13.3027L 238.277 12.8105ZM 273.117 35.7324C 272.496 36.5996 271.734 37.2559 270.832 37.7012C 269.941 38.1465 268.904 38.3691 267.721 38.3691C 265.4 38.3691 263.584 37.5313 262.271 35.8555C 260.971 34.168 260.32 31.9531 260.32 29.2109L 260.32 28.8418C 260.32 25.7832 260.971 23.3164 262.271 21.4414C 263.584 19.5664 265.412 18.6289 267.756 18.6289C 268.881 18.6289 269.871 18.8398 270.727 19.2617C 271.594 19.6719 272.332 20.2695 272.941 21.0547L 272.941 13.3027L 270.076 12.8105L 270.076 10.5781L 272.941 10.5781L 276.404 10.5781L 276.404 35.293L 279.27 35.7852L 279.27 38L 273.398 38L 273.117 35.7324ZM 263.783 29.2109C 263.783 31.1211 264.176 32.6562 264.961 33.8164C 265.746 34.9766 266.959 35.5566 268.6 35.5566C 269.631 35.5566 270.498 35.3223 271.201 34.8535C 271.904 34.3848 272.484 33.7227 272.941 32.8672L 272.941 24.043C 272.496 23.2461 271.916 22.6133 271.201 22.1445C 270.486 21.6758 269.631 21.4414 268.635 21.4414C 266.982 21.4414 265.758 22.127 264.961 23.498C 264.176 24.8691 263.783 26.6504 263.783 28.8418L 263.783 29.2109ZM 281.941 28.3145C 281.941 25.502 282.703 23.1875 284.227 21.3711C 285.75 19.543 287.818 18.6289 290.432 18.6289C 293.057 18.6289 295.131 19.5371 296.654 21.3535C 298.189 23.1699 298.957 25.4902 298.957 28.3145L 298.957 28.7012C 298.957 31.5371 298.195 33.8574 296.672 35.6621C 295.148 37.4668 293.08 38.3691 290.467 38.3691C 287.83 38.3691 285.75 37.4668 284.227 35.6621C 282.703 33.8457 281.941 31.5254 281.941 28.7012L 281.941 28.3145ZM 285.404 28.7012C 285.404 30.7168 285.826 32.3809 286.67 33.6934C 287.525 35.0059 288.791 35.6621 290.467 35.6621C 292.107 35.6621 293.355 35.0059 294.211 33.6934C 295.066 32.3809 295.494 30.7168 295.494 28.7012L 295.494 28.3145C 295.494 26.3223 295.066 24.6641 294.211 23.3398C 293.355 22.0156 292.096 21.3535 290.432 21.3535C 288.768 21.3535 287.514 22.0156 286.67 23.3398C 285.826 24.6641 285.404 26.3223 285.404 28.3145L 285.404 28.7012ZM 308.889 21.2129L 306.709 21.5996L 309.188 31.0742L 309.592 33.377L 309.697 33.377L 310.189 31.0742L 313.986 18.9805L 316.764 18.9805L 320.578 31.0742L 321.123 33.6406L 321.229 33.6406L 321.738 31.0742L 324.076 21.5996L 321.861 21.2129L 321.861 18.9805L 329.104 18.9805L 329.104 21.2129L 327.451 21.459L 322.652 38L 319.857 38L 316.166 26.416L 315.375 23.2168L 315.27 23.2344L 314.531 26.416L 310.91 38L 308.115 38L 303.316 21.459L 301.646 21.2129L 301.646 18.9805L 308.889 18.9805L 308.889 21.2129ZM 331.406 35.7852L 334.271 35.293L 334.271 21.7051L 331.406 21.2129L 331.406 18.9805L 337.365 18.9805L 337.611 21.8105C 338.244 20.8027 339.035 20.0234 339.984 19.4727C 340.945 18.9102 342.035 18.6289 343.254 18.6289C 345.305 18.6289 346.893 19.2324 348.018 20.4395C 349.143 21.6348 349.705 23.4863 349.705 25.9941L 349.705 35.293L 352.57 35.7852L 352.57 38L 343.377 38L 343.377 35.7852L 346.242 35.293L 346.242 26.0645C 346.242 24.3887 345.908 23.1992 345.24 22.4961C 344.584 21.793 343.576 21.4414 342.217 21.4414C 341.221 21.4414 340.336 21.6816 339.562 22.1621C 338.801 22.6426 338.191 23.2988 337.734 24.1309L 337.734 35.293L 340.6 35.7852L 340.6 38L 331.406 38L 331.406 35.7852Z"/>
<path id="path10_stroke" d="M -0.0245086 2.49988C 24.7919 2.74318 41.4651 11.5204 53.9127 24.5255C 66.5664 37.6998 74.851 55.2261 82.7109 73.13C 90.571 91.0328 97.9532 109.269 108.545 123.159C 119.316 137.245 133.538 146.977 154.939 147.499L 155.061 142.501C 135.462 142.023 122.559 133.255 112.517 120.122C 102.297 106.793 95.179 89.0922 87.2891 71.12C 79.399 53.1489 70.6836 34.8627 57.5248 21.0682C 44.1599 7.10465 26.2081 -2.24318 0.0245086 -2.49988L -0.0245086 2.49988Z"/>
<path id="path11_stroke" d="M -0.00794452 2.49999C 25.2862 2.57188 42.2005 5.44247 54.9168 9.75723C 67.5088 13.9971 75.6774 19.6025 83.5151 25.3897C 91.3494 31.1732 98.8421 37.1628 109.556 41.7301C 120.177 46.2211 134.219 49.3221 154.98 49.4999L 155.02 44.5001C 134.781 44.3538 121.698 41.4583 111.507 37.1266C 101.408 32.8713 94.4006 27.2122 86.4849 21.3672C 78.5726 15.526 69.7412 9.52314 56.5207 5.02143C 43.4245 0.594595 25.7138 -2.40981 0.00794452 -2.49999L -0.00794452 2.49999Z"/>
<path id="path12_stroke" d="M -0.00845161 2.49999C 25.2729 2.57587 42.1645 5.62577 54.8714 10.213C 67.455 14.7201 75.618 20.6801 83.4558 26.8367C 91.2904 32.9897 98.7856 39.3631 109.504 44.224C 120.298 49.0922 134.221 52.3253 154.979 52.4999L 155.021 47.5001C 134.779 47.3298 121.577 44.1837 111.559 39.6661C 101.464 35.1412 94.4596 29.1223 86.5442 22.9046C 78.632 16.6906 69.795 10.3014 56.5661 5.50898C 43.4605 0.796645 25.7271 -2.40345 0.00845161 -2.49999L -0.00845161 2.49999Z"/>
<path id="path13_stroke" d="M -0.0250157 2.49987C 24.7743 2.74804 41.4427 11.6992 53.8951 24.9786C 66.5536 38.4317 74.8431 56.3298 82.7034 74.605C 90.564 92.8794 97.9428 111.486 108.53 125.656C 119.293 140.022 133.516 149.966 154.938 150.499L 155.062 145.501C 135.484 145.013 122.582 136.074 112.532 122.658C 102.307 109.047 95.186 90.9723 87.2966 72.6294C 79.4069 54.2875 70.6964 35.6321 57.5424 21.5585C 44.1823 7.31114 26.2257 -2.23769 0.0250157 -2.49987L -0.0250157 2.49987Z"/>
<path id="path14_fill" d="M 15 7.5C 15 11.6421 11.6421 15 7.5 15C 3.35786 15 0 11.6421 0 7.5C 0 3.35786 3.35786 0 7.5 0C 11.6421 0 15 3.35786 15 7.5Z"/>
</defs>
</svg>
