<svg width="508" height="426" viewBox="0 0 508 426" version="1.1" xmlns="http://www.w3.org/2000/svg" xmlns:xlink="http://www.w3.org/1999/xlink">
<title>Group</title>
<desc>Created using Figma</desc>
<g id="Canvas" transform="translate(-108 99)">
<g id="Group" filter="url(#filter0_d)">
<g id="Group">
<g id="Group">
<g id="Rectangle 4">
<use xlink:href="#path0_fill" transform="translate(112 -99)" fill="#F3F3F3"/>
</g>
<g id="Group">
<g id="Rectangle">
<use xlink:href="#path1_fill" transform="translate(112 -81)" fill="#283F51"/>
</g>
<g id="Ellipse">
<use xlink:href="#path2_fill" transform="translate(116 -95)" fill="#F14343"/>
</g>
<g id="Ellipse">
<use xlink:href="#path2_fill" transform="translate(131 -95)" fill="#F1B943"/>
<use xlink:href="#path2_fill" transform="translate(131 -95)" fill="#F1B943"/>
</g>
<g id="Ellipse">
<use xlink:href="#path2_fill" transform="translate(146 -95)" fill="#F1B943"/>
<use xlink:href="#path2_fill" transform="translate(146 -95)" fill="#61EA8D"/>
</g>
</g>
</g>
</g>
<g id="Group">
<g id="Rectangle 2">
<use xlink:href="#path3_fill" transform="translate(162 -20)" fill="#FFFFFF" fill-opacity="0.3"/>
</g>
<g id="Rectangle 2">
<use xlink:href="#path4_fill" transform="translate(162 6)" fill="#FFFFFF" fill-opacity="0.3"/>
</g>
<g id="Rectangle 2">
<use xlink:href="#path5_fill" transform="translate(162 32)" fill="#FFFFFF" fill-opacity="0.3"/>
</g>
<g id="Rectangle 2">
<use xlink:href="#path6_fill" transform="translate(162 58)" fill="#FFFFFF" fill-opacity="0.3"/>
</g>
<g id="Rectangle 2">
<use xlink:href="#path3_fill" transform="translate(162 84)" fill="#FFFFFF" fill-opacity="0.3"/>
</g>
<g id="Rectangle 2">
<use xlink:href="#path4_fill" transform="translate(162 110)" fill="#FFFFFF" fill-opacity="0.3"/>
</g>
<g id="Rectangle 2">
<use xlink:href="#path5_fill" transform="translate(162 136)" fill="#FFFFFF" fill-opacity="0.3"/>
</g>
<g id="Rectangle 2">
<use xlink:href="#path6_fill" transform="translate(162 162)" fill="#FFFFFF" fill-opacity="0.3"/>
</g>
<g id="Rectangle 2">
<use xlink:href="#path3_fill" transform="translate(162 188)" fill="#FFFFFF" fill-opacity="0.3"/>
</g>
<g id="Group">
<g id="Rectangle 3">
<use xlink:href="#path7_fill" transform="matrix(0.707107 -0.707107 0.707107 0.707107 139.43 296.993)" fill="#C4C4C4"/>
</g>
<g id="Rectangle 3">
<use xlink:href="#path8_fill" transform="matrix(-0.707107 -0.707107 0.707107 -0.707107 157.757 286.93)" fill="#C4C4C4"/>
</g>
</g>
<g id="Built 418 pages [1.47s]">
<use xlink:href="#path9_fill" transform="translate(162 214)" fill="#C6E041"/>
</g>
<g id="build">
<use xlink:href="#path10_fill" transform="translate(272 -63)" fill="#FEFEFE"/>
</g>
<g id="quantum">
<use xlink:href="#path11_fill" transform="translate(162 -63)" fill="#10D9FF"/>
</g>
</g>
</g>
</g>
<defs>
<filter id="filter0_d" filterUnits="userSpaceOnUse" x="108" y="-99" width="508" height="426" color-interpolation-filters="sRGB">
<feFlood flood-opacity="0" result="BackgroundImageFix"/>
<feColorMatrix in="SourceAlpha" type="matrix" values="0 0 0 0 0 0 0 0 0 0 0 0 0 0 0 0 0 0 255 0"/>
<feOffset dx="0" dy="4"/>
<feGaussianBlur stdDeviation="2"/>
<feColorMatrix type="matrix" values="0 0 0 0 0 0 0 0 0 0 0 0 0 0 0 0 0 0 0.25 0"/>
<feBlend mode="normal" in2="BackgroundImageFix" result="effect1_dropShadow"/>
<feBlend mode="normal" in="SourceGraphic" in2="effect1_dropShadow" result="shape"/>
</filter>
<path id="path0_fill" d="M 0 0L 500 0L 500 18L 0 18L 0 0Z"/>
<path id="path1_fill" d="M 0 0L 500 0L 500 400L 0 400L 0 0Z"/>
<path id="path2_fill" d="M 10 5C 10 7.76142 7.76142 10 5 10C 2.23858 10 0 7.76142 0 5C 0 2.23858 2.23858 0 5 0C 7.76142 0 10 2.23858 10 5Z"/>
<path id="path3_fill" d="M 0 0L 324 0L 324 15L 0 15L 0 0Z"/>
<path id="path4_fill" d="M 0 0L 217 0L 217 15L 0 15L 0 0Z"/>
<path id="path5_fill" d="M 0 0L 365 0L 365 15L 0 15L 0 0Z"/>
<path id="path6_fill" d="M 0 0L 193 0L 193 15L 0 15L 0 0Z"/>
<path id="path7_fill" d="M 0 0L 26.2513 0L 26.2513 5.84401L 0 5.84401L 0 0Z"/>
<path id="path8_fill" d="M 0 0L 24.837 0L 24.837 6.17677L 0 6.17677L 0 0Z"/>
<path id="path9_fill" d="M 2.01562 25L 2.01562 7.9375L 7.08984 7.9375C 7.79297 7.94531 8.48047 8.03906 9.15234 8.21875C 9.82422 8.39062 10.4219 8.66016 10.9453 9.02734C 11.4688 9.39453 11.8867 9.86328 12.1992 10.4336C 12.5117 11.0039 12.6641 11.6875 12.6562 12.4844C 12.6484 12.9297 12.5742 13.3359 12.4336 13.7031C 12.3008 14.0703 12.1133 14.4023 11.8711 14.6992C 11.6367 14.9883 11.3594 15.2422 11.0391 15.4609C 10.7188 15.6797 10.3789 15.8672 10.0195 16.0234C 10.4727 16.1562 10.8867 16.3477 11.2617 16.5977C 11.6445 16.8398 11.9727 17.1367 12.2461 17.4883C 12.5195 17.832 12.7305 18.2227 12.8789 18.6602C 13.0352 19.0977 13.1133 19.5703 13.1133 20.0781C 13.1211 20.875 12.9688 21.5781 12.6562 22.1875C 12.3438 22.7969 11.9258 23.3086 11.4023 23.7227C 10.8789 24.1289 10.2734 24.4414 9.58594 24.6602C 8.90625 24.8789 8.20312 24.9922 7.47656 25L 2.01562 25ZM 4.19531 17.0195L 4.19531 23.1602L 7.53516 23.1602C 7.98828 23.1523 8.41797 23.0781 8.82422 22.9375C 9.23047 22.7891 9.58984 22.5859 9.90234 22.3281C 10.2148 22.0703 10.4609 21.7539 10.6406 21.3789C 10.8281 21.0039 10.9219 20.5781 10.9219 20.1016C 10.9297 19.6172 10.8477 19.1875 10.6758 18.8125C 10.5117 18.4375 10.2812 18.1211 9.98438 17.8633C 9.6875 17.5977 9.33984 17.3945 8.94141 17.2539C 8.54297 17.1133 8.11328 17.0352 7.65234 17.0195L 4.19531 17.0195ZM 4.19531 15.2148L 7.21875 15.2148C 7.625 15.207 8.02344 15.1445 8.41406 15.0273C 8.80469 14.9023 9.15234 14.7266 9.45703 14.5C 9.76172 14.2656 10.0078 13.9805 10.1953 13.6445C 10.3828 13.3086 10.4766 12.918 10.4766 12.4727C 10.4766 11.9961 10.3828 11.5898 10.1953 11.2539C 10.0156 10.918 9.76953 10.6445 9.45703 10.4336C 9.15234 10.2148 8.79688 10.0547 8.39062 9.95312C 7.99219 9.85156 7.58203 9.79688 7.16016 9.78906L 4.19531 9.78906L 4.19531 15.2148ZM 24.6797 23.2539C 24.2578 23.8789 23.7305 24.3672 23.0977 24.7188C 22.4648 25.0625 21.7344 25.2344 20.9062 25.2344C 20.2422 25.2344 19.6406 25.1328 19.1016 24.9297C 18.5625 24.7188 18.1016 24.3945 17.7188 23.957C 17.3359 23.5195 17.0391 22.9648 16.8281 22.293C 16.625 21.6133 16.5234 20.8008 16.5234 19.8555L 16.5234 12.3203L 18.6914 12.3203L 18.6914 19.8789C 18.6914 20.5664 18.7461 21.1367 18.8555 21.5898C 18.9648 22.043 19.1289 22.4062 19.3477 22.6797C 19.5664 22.9453 19.832 23.1328 20.1445 23.2422C 20.4648 23.3516 20.832 23.4062 21.2461 23.4062C 22.1289 23.4062 22.8398 23.2266 23.3789 22.8672C 23.9258 22.5078 24.332 22.0234 24.5977 21.4141L 24.5977 12.3203L 26.7773 12.3203L 26.7773 25L 24.8086 25L 24.6797 23.2539ZM 31.207 12.3203L 37.6875 12.3203L 37.6875 23.125L 41.8242 23.125L 41.8242 25L 31.207 25L 31.207 23.125L 35.5195 23.125L 35.5195 14.207L 31.207 14.207L 31.207 12.3203ZM 35.2383 8.99219C 35.2383 8.63281 35.3438 8.33203 35.5547 8.08984C 35.7734 7.83984 36.1016 7.71484 36.5391 7.71484C 36.9688 7.71484 37.293 7.83984 37.5117 8.08984C 37.7305 8.33203 37.8398 8.63281 37.8398 8.99219C 37.8398 9.34375 37.7305 9.63672 37.5117 9.87109C 37.293 10.1055 36.9688 10.2227 36.5391 10.2227C 36.1016 10.2227 35.7734 10.1055 35.5547 9.87109C 35.3438 9.63672 35.2383 9.34375 35.2383 8.99219ZM 45.6211 7L 52.1016 7L 52.1016 23.125L 56.2383 23.125L 56.2383 25L 45.6211 25L 45.6211 23.125L 49.9336 23.125L 49.9336 8.88672L 45.6211 8.88672L 45.6211 7ZM 64.8281 9.25L 64.8281 12.3203L 69.6562 12.3203L 69.6562 13.9961L 64.8281 13.9961L 64.8281 20.8867C 64.8281 21.3789 64.8906 21.7852 65.0156 22.1055C 65.1406 22.4258 65.3125 22.6836 65.5312 22.8789C 65.75 23.0664 66 23.1992 66.2812 23.2773C 66.5703 23.3555 66.875 23.3945 67.1953 23.3945C 67.4297 23.3945 67.6719 23.3828 67.9219 23.3594C 68.1719 23.3281 68.4141 23.293 68.6484 23.2539C 68.8906 23.2148 69.1133 23.1758 69.3164 23.1367C 69.5273 23.0898 69.6992 23.0508 69.832 23.0195L 70.1367 24.5547C 69.957 24.6641 69.7383 24.7617 69.4805 24.8477C 69.2227 24.9258 68.9414 24.9922 68.6367 25.0469C 68.332 25.1094 68.0078 25.1562 67.6641 25.1875C 67.3281 25.2188 66.9922 25.2344 66.6562 25.2344C 66.0938 25.2344 65.5664 25.1562 65.0742 25C 64.5898 24.8359 64.168 24.582 63.8086 24.2383C 63.4492 23.8867 63.1641 23.4375 62.9531 22.8906C 62.75 22.3359 62.6484 21.668 62.6484 20.8867L 62.6484 13.9961L 59.3203 13.9961L 59.3203 12.3203L 62.6484 12.3203L 62.6484 9.25L 64.8281 9.25ZM 97.3125 19.2695L 99.6914 19.2695L 99.6914 21.0391L 97.3125 21.0391L 97.3125 25L 95.1445 25L 95.1445 21.0391L 87.3633 21.0391L 87.3633 19.7617L 95.0039 7.9375L 97.3125 7.9375L 97.3125 19.2695ZM 89.7656 19.2695L 95.1445 19.2695L 95.1445 10.8203L 94.793 11.4766L 89.7656 19.2695ZM 109.969 25L 107.801 25L 107.801 10.7031L 103.336 12.4023L 103.336 10.4219L 109.793 7.9375L 109.969 7.9375L 109.969 25ZM 127.852 12.3906C 127.844 13.2422 127.613 14 127.16 14.6641C 126.707 15.3281 126.102 15.8477 125.344 16.2227C 125.781 16.4102 126.176 16.6445 126.527 16.9258C 126.887 17.1992 127.191 17.5156 127.441 17.875C 127.699 18.2344 127.895 18.625 128.027 19.0469C 128.168 19.4688 128.238 19.918 128.238 20.3945C 128.238 21.168 128.094 21.8555 127.805 22.457C 127.523 23.0586 127.137 23.5664 126.645 23.9805C 126.16 24.3867 125.59 24.6992 124.934 24.918C 124.277 25.1289 123.574 25.2344 122.824 25.2344C 122.059 25.2344 121.344 25.1289 120.68 24.918C 120.023 24.707 119.449 24.3984 118.957 23.9922C 118.473 23.5781 118.09 23.0703 117.809 22.4688C 117.527 21.8672 117.387 21.1758 117.387 20.3945C 117.387 19.918 117.453 19.4688 117.586 19.0469C 117.719 18.6172 117.91 18.2266 118.16 17.875C 118.41 17.5156 118.711 17.1953 119.062 16.9141C 119.414 16.6328 119.809 16.3984 120.246 16.2109C 119.871 16.0234 119.531 15.8008 119.227 15.543C 118.922 15.2773 118.664 14.9844 118.453 14.6641C 118.242 14.3359 118.078 13.9805 117.961 13.5977C 117.844 13.2148 117.785 12.8125 117.785 12.3906C 117.785 11.6484 117.91 10.9883 118.16 10.4102C 118.41 9.82422 118.754 9.33203 119.191 8.93359C 119.637 8.53516 120.164 8.23047 120.773 8.01953C 121.391 7.80859 122.062 7.70312 122.789 7.70312C 123.508 7.70312 124.176 7.80859 124.793 8.01953C 125.41 8.23047 125.945 8.53516 126.398 8.93359C 126.852 9.33203 127.207 9.82422 127.465 10.4102C 127.723 10.9883 127.852 11.6484 127.852 12.3906ZM 126.07 20.3477C 126.07 19.8711 125.988 19.4336 125.824 19.0352C 125.668 18.6367 125.445 18.2969 125.156 18.0156C 124.867 17.7266 124.52 17.5039 124.113 17.3477C 123.715 17.1914 123.277 17.1133 122.801 17.1133C 122.309 17.1133 121.863 17.1914 121.465 17.3477C 121.066 17.5039 120.727 17.7266 120.445 18.0156C 120.164 18.2969 119.945 18.6367 119.789 19.0352C 119.641 19.4336 119.566 19.8711 119.566 20.3477C 119.566 20.8398 119.641 21.2812 119.789 21.6719C 119.945 22.0547 120.164 22.3789 120.445 22.6445C 120.727 22.9102 121.066 23.1133 121.465 23.2539C 121.871 23.3945 122.324 23.4648 122.824 23.4648C 123.301 23.4648 123.738 23.3945 124.137 23.2539C 124.535 23.1133 124.875 22.9102 125.156 22.6445C 125.445 22.3789 125.668 22.0547 125.824 21.6719C 125.988 21.2812 126.07 20.8398 126.07 20.3477ZM 125.672 12.4258C 125.672 11.9961 125.598 11.6016 125.449 11.2422C 125.309 10.8828 125.109 10.5742 124.852 10.3164C 124.602 10.0508 124.301 9.84766 123.949 9.70703C 123.598 9.55859 123.211 9.48438 122.789 9.48438C 122.367 9.48438 121.984 9.55469 121.641 9.69531C 121.297 9.82812 121 10.0234 120.75 10.2812C 120.5 10.5391 120.305 10.8516 120.164 11.2188C 120.031 11.5781 119.965 11.9805 119.965 12.4258C 119.965 12.8711 120.031 13.2734 120.164 13.6328C 120.305 13.9844 120.5 14.2891 120.75 14.5469C 121.008 14.7969 121.309 14.9922 121.652 15.1328C 122.004 15.2656 122.391 15.332 122.812 15.332C 123.227 15.332 123.609 15.2656 123.961 15.1328C 124.312 14.9922 124.613 14.7969 124.863 14.5469C 125.121 14.2891 125.32 13.9805 125.461 13.6211C 125.602 13.2617 125.672 12.8633 125.672 12.4258ZM 156.879 18.8008C 156.879 19.707 156.77 20.5547 156.551 21.3438C 156.332 22.125 156.012 22.8047 155.59 23.3828C 155.168 23.9609 154.645 24.4141 154.02 24.7422C 153.402 25.0703 152.695 25.2344 151.898 25.2344C 151.125 25.2344 150.441 25.1094 149.848 24.8594C 149.262 24.6094 148.758 24.25 148.336 23.7812L 148.336 29.875L 146.168 29.875L 146.168 12.3203L 148.148 12.3203L 148.254 13.7031C 148.676 13.1797 149.184 12.7812 149.777 12.5078C 150.379 12.2266 151.074 12.0859 151.863 12.0859C 152.676 12.0859 153.395 12.2461 154.02 12.5664C 154.645 12.8867 155.168 13.332 155.59 13.9023C 156.012 14.4727 156.332 15.1562 156.551 15.9531C 156.77 16.7422 156.879 17.6094 156.879 18.5547L 156.879 18.8008ZM 154.711 18.5547C 154.711 17.9375 154.641 17.3516 154.5 16.7969C 154.367 16.2344 154.156 15.7422 153.867 15.3203C 153.586 14.8906 153.227 14.5508 152.789 14.3008C 152.352 14.0508 151.828 13.9258 151.219 13.9258C 150.523 13.9258 149.938 14.0898 149.461 14.418C 148.992 14.7383 148.617 15.1523 148.336 15.6602L 148.336 21.7656C 148.617 22.2656 148.992 22.6758 149.461 22.9961C 149.93 23.3086 150.523 23.4648 151.242 23.4648C 151.844 23.4648 152.363 23.3398 152.801 23.0898C 153.238 22.832 153.598 22.4883 153.879 22.0586C 154.16 21.6289 154.367 21.1328 154.5 20.5703C 154.641 20.0078 154.711 19.418 154.711 18.8008L 154.711 18.5547ZM 168.926 25C 168.84 24.8359 168.77 24.6328 168.715 24.3906C 168.668 24.1406 168.633 23.8828 168.609 23.6172C 168.391 23.8359 168.145 24.043 167.871 24.2383C 167.605 24.4336 167.309 24.6055 166.98 24.7539C 166.66 24.9023 166.316 25.0195 165.949 25.1055C 165.582 25.1914 165.191 25.2344 164.777 25.2344C 164.105 25.2344 163.496 25.1367 162.949 24.9414C 162.41 24.7461 161.949 24.4844 161.566 24.1562C 161.191 23.8203 160.898 23.4258 160.688 22.9727C 160.484 22.5117 160.383 22.0156 160.383 21.4844C 160.383 20.7891 160.52 20.1797 160.793 19.6562C 161.074 19.1328 161.469 18.6992 161.977 18.3555C 162.484 18.0039 163.094 17.7422 163.805 17.5703C 164.523 17.3984 165.324 17.3125 166.207 17.3125L 168.574 17.3125L 168.574 16.3164C 168.574 15.9336 168.504 15.5898 168.363 15.2852C 168.223 14.9805 168.023 14.7227 167.766 14.5117C 167.508 14.293 167.191 14.125 166.816 14.0078C 166.449 13.8906 166.035 13.832 165.574 13.832C 165.145 13.832 164.758 13.8867 164.414 13.9961C 164.078 14.1055 163.793 14.25 163.559 14.4297C 163.324 14.6094 163.141 14.8242 163.008 15.0742C 162.883 15.3164 162.82 15.5703 162.82 15.8359L 160.641 15.8359C 160.648 15.375 160.766 14.9219 160.992 14.4766C 161.227 14.0312 161.559 13.6328 161.988 13.2812C 162.426 12.9219 162.953 12.6328 163.57 12.4141C 164.195 12.1953 164.902 12.0859 165.691 12.0859C 166.41 12.0859 167.078 12.1758 167.695 12.3555C 168.312 12.5273 168.844 12.793 169.289 13.1523C 169.742 13.5039 170.098 13.9453 170.355 14.4766C 170.613 15.0078 170.742 15.6289 170.742 16.3398L 170.742 22.2344C 170.742 22.6562 170.781 23.1055 170.859 23.582C 170.938 24.0508 171.047 24.4609 171.188 24.8125L 171.188 25L 168.926 25ZM 165.094 23.3477C 165.516 23.3477 165.91 23.293 166.277 23.1836C 166.645 23.0742 166.977 22.9297 167.273 22.75C 167.578 22.5703 167.84 22.3672 168.059 22.1406C 168.277 21.9062 168.449 21.6641 168.574 21.4141L 168.574 18.8477L 166.559 18.8477C 165.293 18.8477 164.309 19.0352 163.605 19.4102C 162.902 19.7852 162.551 20.375 162.551 21.1797C 162.551 21.4922 162.602 21.7812 162.703 22.0469C 162.812 22.3125 162.973 22.543 163.184 22.7383C 163.395 22.9258 163.66 23.0742 163.98 23.1836C 164.301 23.293 164.672 23.3477 165.094 23.3477ZM 174.609 18.5547C 174.609 17.6094 174.723 16.7422 174.949 15.9531C 175.184 15.1562 175.52 14.4727 175.957 13.9023C 176.395 13.332 176.926 12.8867 177.551 12.5664C 178.176 12.2461 178.883 12.0859 179.672 12.0859C 180.453 12.0859 181.137 12.2266 181.723 12.5078C 182.316 12.7812 182.82 13.1797 183.234 13.7031L 183.34 12.3203L 185.309 12.3203L 185.309 24.7305C 185.309 25.5664 185.176 26.3086 184.91 26.957C 184.652 27.6055 184.285 28.1562 183.809 28.6094C 183.34 29.0625 182.777 29.4062 182.121 29.6406C 181.465 29.875 180.738 29.9922 179.941 29.9922C 179.613 29.9922 179.238 29.9531 178.816 29.875C 178.395 29.8047 177.965 29.6836 177.527 29.5117C 177.098 29.3477 176.68 29.125 176.273 28.8438C 175.875 28.5625 175.531 28.2148 175.242 27.8008L 176.367 26.5C 176.633 26.8203 176.906 27.0898 177.188 27.3086C 177.469 27.5352 177.754 27.7148 178.043 27.8477C 178.332 27.9805 178.621 28.0742 178.91 28.1289C 179.199 28.1914 179.488 28.2227 179.777 28.2227C 180.293 28.2227 180.758 28.1484 181.172 28C 181.586 27.8516 181.938 27.6328 182.227 27.3438C 182.523 27.0625 182.75 26.7109 182.906 26.2891C 183.062 25.8672 183.141 25.3828 183.141 24.8359L 183.141 23.7461C 182.719 24.2305 182.219 24.6016 181.641 24.8594C 181.07 25.1094 180.406 25.2344 179.648 25.2344C 178.875 25.2344 178.176 25.0703 177.551 24.7422C 176.926 24.4141 176.395 23.9609 175.957 23.3828C 175.527 22.8047 175.195 22.125 174.961 21.3438C 174.727 20.5547 174.609 19.707 174.609 18.8008L 174.609 18.5547ZM 176.777 18.8008C 176.777 19.418 176.84 20.0039 176.965 20.5586C 177.098 21.1133 177.301 21.6016 177.574 22.0234C 177.855 22.4453 178.211 22.7812 178.641 23.0312C 179.07 23.2734 179.586 23.3945 180.188 23.3945C 180.562 23.3945 180.898 23.3516 181.195 23.2656C 181.5 23.1719 181.77 23.043 182.004 22.8789C 182.246 22.7148 182.461 22.5195 182.648 22.293C 182.836 22.0664 183 21.8164 183.141 21.543L 183.141 15.7305C 183 15.4648 182.836 15.2227 182.648 15.0039C 182.461 14.7852 182.246 14.5977 182.004 14.4414C 181.762 14.2773 181.492 14.1523 181.195 14.0664C 180.898 13.9727 180.57 13.9258 180.211 13.9258C 179.602 13.9258 179.078 14.0508 178.641 14.3008C 178.211 14.5508 177.855 14.8906 177.574 15.3203C 177.301 15.7422 177.098 16.2344 176.965 16.7969C 176.84 17.3516 176.777 17.9375 176.777 18.5547L 176.777 18.8008ZM 195.023 25.2344C 194.133 25.2344 193.312 25.082 192.562 24.7773C 191.82 24.4727 191.184 24.0469 190.652 23.5C 190.121 22.9531 189.707 22.3047 189.41 21.5547C 189.113 20.8047 188.965 19.9883 188.965 19.1055L 188.965 18.6133C 188.965 17.5898 189.129 16.6758 189.457 15.8711C 189.785 15.0586 190.219 14.375 190.758 13.8203C 191.305 13.2578 191.922 12.8281 192.609 12.5312C 193.305 12.2344 194.016 12.0859 194.742 12.0859C 195.656 12.0859 196.453 12.2461 197.133 12.5664C 197.82 12.8789 198.391 13.3164 198.844 13.8789C 199.297 14.4336 199.633 15.0898 199.852 15.8477C 200.078 16.6055 200.191 17.4258 200.191 18.3086L 200.191 19.2812L 191.133 19.2812C 191.156 19.8594 191.266 20.4023 191.461 20.9102C 191.664 21.418 191.938 21.8633 192.281 22.2461C 192.633 22.6211 193.051 22.918 193.535 23.1367C 194.02 23.3555 194.555 23.4648 195.141 23.4648C 195.914 23.4648 196.602 23.3086 197.203 22.9961C 197.805 22.6836 198.305 22.2695 198.703 21.7539L 200.027 22.7852C 199.816 23.1055 199.551 23.4141 199.23 23.7109C 198.918 24 198.555 24.2578 198.141 24.4844C 197.727 24.7109 197.258 24.8906 196.734 25.0234C 196.211 25.1641 195.641 25.2344 195.023 25.2344ZM 194.742 13.8672C 194.305 13.8672 193.891 13.9492 193.5 14.1133C 193.109 14.2695 192.758 14.5039 192.445 14.8164C 192.133 15.1211 191.867 15.5 191.648 15.9531C 191.438 16.3984 191.289 16.9141 191.203 17.5L 198.023 17.5L 198.023 17.3359C 198 16.9141 197.918 16.4961 197.777 16.082C 197.645 15.668 197.445 15.2969 197.18 14.9688C 196.914 14.6406 196.578 14.375 196.172 14.1719C 195.773 13.9688 195.297 13.8672 194.742 13.8672ZM 212.262 21.6367C 212.262 21.3789 212.211 21.1484 212.109 20.9453C 212.008 20.7344 211.836 20.543 211.594 20.3711C 211.352 20.1992 211.031 20.043 210.633 19.9023C 210.234 19.7539 209.738 19.6211 209.145 19.5039C 208.418 19.3555 207.754 19.1758 207.152 18.9648C 206.559 18.7539 206.047 18.5039 205.617 18.2148C 205.195 17.918 204.867 17.5742 204.633 17.1836C 204.398 16.7852 204.281 16.3242 204.281 15.8008C 204.281 15.2852 204.402 14.8047 204.645 14.3594C 204.887 13.9062 205.227 13.5117 205.664 13.1758C 206.102 12.8398 206.621 12.5742 207.223 12.3789C 207.832 12.1836 208.5 12.0859 209.227 12.0859C 210.008 12.0859 210.711 12.1875 211.336 12.3906C 211.961 12.5938 212.492 12.875 212.93 13.2344C 213.367 13.5938 213.703 14.0156 213.938 14.5C 214.18 14.9766 214.301 15.4922 214.301 16.0469L 212.133 16.0469C 212.133 15.7734 212.062 15.5078 211.922 15.25C 211.781 14.9844 211.586 14.75 211.336 14.5469C 211.086 14.3438 210.781 14.1797 210.422 14.0547C 210.07 13.9297 209.672 13.8672 209.227 13.8672C 208.766 13.8672 208.359 13.918 208.008 14.0195C 207.664 14.1211 207.375 14.2578 207.141 14.4297C 206.914 14.6016 206.742 14.8008 206.625 15.0273C 206.508 15.2539 206.449 15.4883 206.449 15.7305C 206.449 15.9805 206.496 16.2031 206.59 16.3984C 206.684 16.5938 206.844 16.7695 207.07 16.9258C 207.305 17.082 207.613 17.2227 207.996 17.3477C 208.387 17.4727 208.879 17.5938 209.473 17.7109C 210.254 17.875 210.953 18.0664 211.57 18.2852C 212.188 18.4961 212.707 18.7539 213.129 19.0586C 213.551 19.3555 213.871 19.7031 214.09 20.1016C 214.316 20.5 214.43 20.9609 214.43 21.4844C 214.43 22.0469 214.301 22.5586 214.043 23.0195C 213.793 23.4805 213.441 23.875 212.988 24.2031C 212.535 24.5312 211.992 24.7852 211.359 24.9648C 210.727 25.1445 210.035 25.2344 209.285 25.2344C 208.426 25.2344 207.66 25.1211 206.988 24.8945C 206.316 24.6602 205.746 24.3555 205.277 23.9805C 204.816 23.5977 204.461 23.1562 204.211 22.6562C 203.969 22.1562 203.848 21.6367 203.848 21.0977L 206.016 21.0977C 206.047 21.543 206.164 21.918 206.367 22.2227C 206.578 22.5273 206.836 22.7734 207.141 22.9609C 207.453 23.1484 207.797 23.2812 208.172 23.3594C 208.547 23.4375 208.918 23.4766 209.285 23.4766C 210.199 23.4766 210.922 23.3086 211.453 22.9727C 211.984 22.6367 212.254 22.1914 212.262 21.6367ZM 240.258 7.28125L 237.668 7.28125L 237.668 26.875L 240.258 26.875L 240.258 28.6562L 235.617 28.6562L 235.617 5.5L 240.258 5.5L 240.258 7.28125ZM 254.109 25L 251.941 25L 251.941 10.7031L 247.477 12.4023L 247.477 10.4219L 253.934 7.9375L 254.109 7.9375L 254.109 25ZM 265.266 23.5938C 265.266 23.3594 265.301 23.1406 265.371 22.9375C 265.449 22.7344 265.559 22.5586 265.699 22.4102C 265.84 22.2539 266.016 22.1328 266.227 22.0469C 266.438 21.9609 266.684 21.918 266.965 21.918C 267.246 21.918 267.492 21.9609 267.703 22.0469C 267.922 22.1328 268.102 22.2539 268.242 22.4102C 268.391 22.5586 268.5 22.7344 268.57 22.9375C 268.648 23.1406 268.688 23.3594 268.688 23.5938C 268.688 23.8203 268.648 24.0352 268.57 24.2383C 268.5 24.4336 268.391 24.6055 268.242 24.7539C 268.102 24.9023 267.922 25.0156 267.703 25.0938C 267.492 25.1797 267.246 25.2227 266.965 25.2227C 266.684 25.2227 266.438 25.1797 266.227 25.0938C 266.016 25.0156 265.84 24.9023 265.699 24.7539C 265.559 24.6055 265.449 24.4336 265.371 24.2383C 265.301 24.0352 265.266 23.8203 265.266 23.5938ZM 284.695 19.2695L 287.074 19.2695L 287.074 21.0391L 284.695 21.0391L 284.695 25L 282.527 25L 282.527 21.0391L 274.746 21.0391L 274.746 19.7617L 282.387 7.9375L 284.695 7.9375L 284.695 19.2695ZM 277.148 19.2695L 282.527 19.2695L 282.527 10.8203L 282.176 11.4766L 277.148 19.2695ZM 301.125 9.15625L 294.059 25L 291.785 25L 298.828 9.83594L 289.594 9.83594L 289.594 7.9375L 301.125 7.9375L 301.125 9.15625ZM 313.16 21.6367C 313.16 21.3789 313.109 21.1484 313.008 20.9453C 312.906 20.7344 312.734 20.543 312.492 20.3711C 312.25 20.1992 311.93 20.043 311.531 19.9023C 311.133 19.7539 310.637 19.6211 310.043 19.5039C 309.316 19.3555 308.652 19.1758 308.051 18.9648C 307.457 18.7539 306.945 18.5039 306.516 18.2148C 306.094 17.918 305.766 17.5742 305.531 17.1836C 305.297 16.7852 305.18 16.3242 305.18 15.8008C 305.18 15.2852 305.301 14.8047 305.543 14.3594C 305.785 13.9062 306.125 13.5117 306.562 13.1758C 307 12.8398 307.52 12.5742 308.121 12.3789C 308.73 12.1836 309.398 12.0859 310.125 12.0859C 310.906 12.0859 311.609 12.1875 312.234 12.3906C 312.859 12.5938 313.391 12.875 313.828 13.2344C 314.266 13.5938 314.602 14.0156 314.836 14.5C 315.078 14.9766 315.199 15.4922 315.199 16.0469L 313.031 16.0469C 313.031 15.7734 312.961 15.5078 312.82 15.25C 312.68 14.9844 312.484 14.75 312.234 14.5469C 311.984 14.3438 311.68 14.1797 311.32 14.0547C 310.969 13.9297 310.57 13.8672 310.125 13.8672C 309.664 13.8672 309.258 13.918 308.906 14.0195C 308.562 14.1211 308.273 14.2578 308.039 14.4297C 307.812 14.6016 307.641 14.8008 307.523 15.0273C 307.406 15.2539 307.348 15.4883 307.348 15.7305C 307.348 15.9805 307.395 16.2031 307.488 16.3984C 307.582 16.5938 307.742 16.7695 307.969 16.9258C 308.203 17.082 308.512 17.2227 308.895 17.3477C 309.285 17.4727 309.777 17.5938 310.371 17.7109C 311.152 17.875 311.852 18.0664 312.469 18.2852C 313.086 18.4961 313.605 18.7539 314.027 19.0586C 314.449 19.3555 314.77 19.7031 314.988 20.1016C 315.215 20.5 315.328 20.9609 315.328 21.4844C 315.328 22.0469 315.199 22.5586 314.941 23.0195C 314.691 23.4805 314.34 23.875 313.887 24.2031C 313.434 24.5312 312.891 24.7852 312.258 24.9648C 311.625 25.1445 310.934 25.2344 310.184 25.2344C 309.324 25.2344 308.559 25.1211 307.887 24.8945C 307.215 24.6602 306.645 24.3555 306.176 23.9805C 305.715 23.5977 305.359 23.1562 305.109 22.6562C 304.867 22.1562 304.746 21.6367 304.746 21.0977L 306.914 21.0977C 306.945 21.543 307.062 21.918 307.266 22.2227C 307.477 22.5273 307.734 22.7734 308.039 22.9609C 308.352 23.1484 308.695 23.2812 309.07 23.3594C 309.445 23.4375 309.816 23.4766 310.184 23.4766C 311.098 23.4766 311.82 23.3086 312.352 22.9727C 312.883 22.6367 313.152 22.1914 313.16 21.6367ZM 321.855 5.5L 326.508 5.5L 326.508 28.6562L 321.855 28.6562L 321.855 26.875L 324.457 26.875L 324.457 7.28125L 321.855 7.28125L 321.855 5.5Z"/>
<path id="path10_fill" d="M 12.7852 18.8008C 12.7852 19.707 12.6758 20.5547 12.457 21.3438C 12.2383 22.125 11.918 22.8047 11.4961 23.3828C 11.0742 23.9609 10.5508 24.4141 9.92578 24.7422C 9.30859 25.0703 8.59766 25.2344 7.79297 25.2344C 6.98047 25.2344 6.27344 25.0898 5.67188 24.8008C 5.07812 24.5117 4.57031 24.0977 4.14844 23.5586L 4.04297 25L 2.05078 25L 2.05078 7L 4.21875 7L 4.21875 13.6797C 4.63281 13.1641 5.13281 12.7695 5.71875 12.4961C 6.30469 12.2227 6.98828 12.0859 7.76953 12.0859C 8.58203 12.0859 9.30078 12.2461 9.92578 12.5664C 10.5508 12.8867 11.0742 13.332 11.4961 13.9023C 11.918 14.4727 12.2383 15.1562 12.457 15.9531C 12.6758 16.7422 12.7852 17.6094 12.7852 18.5547L 12.7852 18.8008ZM 10.6172 18.5547C 10.6172 17.9375 10.5547 17.3516 10.4297 16.7969C 10.3125 16.2344 10.1211 15.7422 9.85547 15.3203C 9.58984 14.8906 9.24219 14.5508 8.8125 14.3008C 8.38281 14.0508 7.85547 13.9258 7.23047 13.9258C 6.85547 13.9258 6.51172 13.9766 6.19922 14.0781C 5.88672 14.1719 5.60547 14.3086 5.35547 14.4883C 5.11328 14.6602 4.89453 14.8672 4.69922 15.1094C 4.51172 15.3438 4.35156 15.6016 4.21875 15.8828L 4.21875 21.4258C 4.35938 21.707 4.52344 21.9688 4.71094 22.2109C 4.90625 22.4453 5.12891 22.6523 5.37891 22.832C 5.62891 23.0117 5.91016 23.1523 6.22266 23.2539C 6.53516 23.3477 6.87891 23.3945 7.25391 23.3945C 7.84766 23.3945 8.35547 23.2734 8.77734 23.0312C 9.20703 22.7812 9.55469 22.4453 9.82031 22.0234C 10.0938 21.6016 10.293 21.1133 10.418 20.5586C 10.5508 20.0039 10.6172 19.418 10.6172 18.8008L 10.6172 18.5547ZM 24.6797 23.2539C 24.2578 23.8789 23.7305 24.3672 23.0977 24.7188C 22.4648 25.0625 21.7344 25.2344 20.9062 25.2344C 20.2422 25.2344 19.6406 25.1328 19.1016 24.9297C 18.5625 24.7188 18.1016 24.3945 17.7188 23.957C 17.3359 23.5195 17.0391 22.9648 16.8281 22.293C 16.625 21.6133 16.5234 20.8008 16.5234 19.8555L 16.5234 12.3203L 18.6914 12.3203L 18.6914 19.8789C 18.6914 20.5664 18.7461 21.1367 18.8555 21.5898C 18.9648 22.043 19.1289 22.4062 19.3477 22.6797C 19.5664 22.9453 19.832 23.1328 20.1445 23.2422C 20.4648 23.3516 20.832 23.4062 21.2461 23.4062C 22.1289 23.4062 22.8398 23.2266 23.3789 22.8672C 23.9258 22.5078 24.332 22.0234 24.5977 21.4141L 24.5977 12.3203L 26.7773 12.3203L 26.7773 25L 24.8086 25L 24.6797 23.2539ZM 31.207 12.3203L 37.6875 12.3203L 37.6875 23.125L 41.8242 23.125L 41.8242 25L 31.207 25L 31.207 23.125L 35.5195 23.125L 35.5195 14.207L 31.207 14.207L 31.207 12.3203ZM 35.2383 8.99219C 35.2383 8.63281 35.3438 8.33203 35.5547 8.08984C 35.7734 7.83984 36.1016 7.71484 36.5391 7.71484C 36.9688 7.71484 37.293 7.83984 37.5117 8.08984C 37.7305 8.33203 37.8398 8.63281 37.8398 8.99219C 37.8398 9.34375 37.7305 9.63672 37.5117 9.87109C 37.293 10.1055 36.9688 10.2227 36.5391 10.2227C 36.1016 10.2227 35.7734 10.1055 35.5547 9.87109C 35.3438 9.63672 35.2383 9.34375 35.2383 8.99219ZM 45.6211 7L 52.1016 7L 52.1016 23.125L 56.2383 23.125L 56.2383 25L 45.6211 25L 45.6211 23.125L 49.9336 23.125L 49.9336 8.88672L 45.6211 8.88672L 45.6211 7ZM 59.2852 18.5547C 59.2852 17.6094 59.4023 16.7422 59.6367 15.9531C 59.8789 15.1562 60.2188 14.4727 60.6562 13.9023C 61.1016 13.332 61.6367 12.8867 62.2617 12.5664C 62.8867 12.2461 63.5859 12.0859 64.3594 12.0859C 65.1172 12.0859 65.7773 12.2148 66.3398 12.4727C 66.9102 12.7227 67.4023 13.0898 67.8164 13.5742L 67.8164 7L 69.9844 7L 69.9844 25L 67.9922 25L 67.8984 23.6641C 67.4766 24.1797 66.9727 24.5703 66.3867 24.8359C 65.8008 25.1016 65.1172 25.2344 64.3359 25.2344C 63.5703 25.2344 62.875 25.0703 62.25 24.7422C 61.6328 24.4141 61.1055 23.9609 60.668 23.3828C 60.2305 22.8047 59.8906 22.125 59.6484 21.3438C 59.4062 20.5547 59.2852 19.707 59.2852 18.8008L 59.2852 18.5547ZM 61.4531 18.8008C 61.4531 19.418 61.5195 20.0039 61.6523 20.5586C 61.7852 21.1133 61.9883 21.6016 62.2617 22.0234C 62.543 22.4453 62.8984 22.7812 63.3281 23.0312C 63.7578 23.2734 64.2734 23.3945 64.875 23.3945C 65.2422 23.3945 65.5742 23.3516 65.8711 23.2656C 66.168 23.1797 66.4375 23.0586 66.6797 22.9023C 66.9219 22.7383 67.1367 22.5469 67.3242 22.3281C 67.5117 22.1016 67.6758 21.8516 67.8164 21.5781L 67.8164 15.6953C 67.5352 15.1797 67.1562 14.7578 66.6797 14.4297C 66.2031 14.0938 65.6094 13.9258 64.8984 13.9258C 64.2891 13.9258 63.7656 14.0508 63.3281 14.3008C 62.8984 14.5508 62.543 14.8906 62.2617 15.3203C 61.9883 15.7422 61.7852 16.2344 61.6523 16.7969C 61.5195 17.3516 61.4531 17.9375 61.4531 18.5547L 61.4531 18.8008Z"/>
<path id="path11_fill" d="M 1.64062 18.5547C 1.64062 17.6094 1.75391 16.7422 1.98047 15.9531C 2.20703 15.1562 2.53906 14.4727 2.97656 13.9023C 3.41406 13.332 3.94922 12.8867 4.58203 12.5664C 5.22266 12.2461 5.94922 12.0859 6.76172 12.0859C 7.51172 12.0859 8.17188 12.2148 8.74219 12.4727C 9.32031 12.7227 9.82031 13.0898 10.2422 13.5742L 10.3359 12.3203L 12.3281 12.3203L 12.3281 29.875L 10.1602 29.875L 10.1602 23.8516C 9.73828 24.2969 9.24609 24.6406 8.68359 24.8828C 8.12109 25.1172 7.47266 25.2344 6.73828 25.2344C 5.93359 25.2344 5.21484 25.0703 4.58203 24.7422C 3.95703 24.4141 3.42578 23.9609 2.98828 23.3828C 2.55078 22.8047 2.21484 22.125 1.98047 21.3438C 1.75391 20.5547 1.64062 19.707 1.64062 18.8008L 1.64062 18.5547ZM 3.80859 18.8008C 3.80859 19.418 3.875 20.0078 4.00781 20.5703C 4.14844 21.1328 4.35938 21.6289 4.64062 22.0586C 4.92188 22.4883 5.27734 22.832 5.70703 23.0898C 6.14453 23.3398 6.66406 23.4648 7.26562 23.4648C 7.96094 23.4648 8.54297 23.3086 9.01172 22.9961C 9.48047 22.6836 9.86328 22.2773 10.1602 21.7773L 10.1602 15.5195C 10.0117 15.2773 9.83984 15.0586 9.64453 14.8633C 9.45703 14.6602 9.24219 14.4844 9 14.3359C 8.76562 14.1875 8.50391 14.0742 8.21484 13.9961C 7.93359 13.9102 7.625 13.8672 7.28906 13.8672C 6.6875 13.8672 6.16797 13.9961 5.73047 14.2539C 5.29297 14.5117 4.92969 14.8594 4.64062 15.2969C 4.35938 15.7266 4.14844 16.2227 4.00781 16.7852C 3.875 17.3477 3.80859 17.9375 3.80859 18.5547L 3.80859 18.8008ZM 24.6797 23.2539C 24.2578 23.8789 23.7305 24.3672 23.0977 24.7188C 22.4648 25.0625 21.7344 25.2344 20.9062 25.2344C 20.2422 25.2344 19.6406 25.1328 19.1016 24.9297C 18.5625 24.7188 18.1016 24.3945 17.7188 23.957C 17.3359 23.5195 17.0391 22.9648 16.8281 22.293C 16.625 21.6133 16.5234 20.8008 16.5234 19.8555L 16.5234 12.3203L 18.6914 12.3203L 18.6914 19.8789C 18.6914 20.5664 18.7461 21.1367 18.8555 21.5898C 18.9648 22.043 19.1289 22.4062 19.3477 22.6797C 19.5664 22.9453 19.832 23.1328 20.1445 23.2422C 20.4648 23.3516 20.832 23.4062 21.2461 23.4062C 22.1289 23.4062 22.8398 23.2266 23.3789 22.8672C 23.9258 22.5078 24.332 22.0234 24.5977 21.4141L 24.5977 12.3203L 26.7773 12.3203L 26.7773 25L 24.8086 25L 24.6797 23.2539ZM 39.1992 25C 39.1133 24.8359 39.043 24.6328 38.9883 24.3906C 38.9414 24.1406 38.9062 23.8828 38.8828 23.6172C 38.6641 23.8359 38.418 24.043 38.1445 24.2383C 37.8789 24.4336 37.582 24.6055 37.2539 24.7539C 36.9336 24.9023 36.5898 25.0195 36.2227 25.1055C 35.8555 25.1914 35.4648 25.2344 35.0508 25.2344C 34.3789 25.2344 33.7695 25.1367 33.2227 24.9414C 32.6836 24.7461 32.2227 24.4844 31.8398 24.1562C 31.4648 23.8203 31.1719 23.4258 30.9609 22.9727C 30.7578 22.5117 30.6562 22.0156 30.6562 21.4844C 30.6562 20.7891 30.793 20.1797 31.0664 19.6562C 31.3477 19.1328 31.7422 18.6992 32.25 18.3555C 32.7578 18.0039 33.3672 17.7422 34.0781 17.5703C 34.7969 17.3984 35.5977 17.3125 36.4805 17.3125L 38.8477 17.3125L 38.8477 16.3164C 38.8477 15.9336 38.7773 15.5898 38.6367 15.2852C 38.4961 14.9805 38.2969 14.7227 38.0391 14.5117C 37.7812 14.293 37.4648 14.125 37.0898 14.0078C 36.7227 13.8906 36.3086 13.832 35.8477 13.832C 35.418 13.832 35.0312 13.8867 34.6875 13.9961C 34.3516 14.1055 34.0664 14.25 33.832 14.4297C 33.5977 14.6094 33.4141 14.8242 33.2812 15.0742C 33.1562 15.3164 33.0938 15.5703 33.0938 15.8359L 30.9141 15.8359C 30.9219 15.375 31.0391 14.9219 31.2656 14.4766C 31.5 14.0312 31.832 13.6328 32.2617 13.2812C 32.6992 12.9219 33.2266 12.6328 33.8438 12.4141C 34.4688 12.1953 35.1758 12.0859 35.9648 12.0859C 36.6836 12.0859 37.3516 12.1758 37.9688 12.3555C 38.5859 12.5273 39.1172 12.793 39.5625 13.1523C 40.0156 13.5039 40.3711 13.9453 40.6289 14.4766C 40.8867 15.0078 41.0156 15.6289 41.0156 16.3398L 41.0156 22.2344C 41.0156 22.6562 41.0547 23.1055 41.1328 23.582C 41.2109 24.0508 41.3203 24.4609 41.4609 24.8125L 41.4609 25L 39.1992 25ZM 35.3672 23.3477C 35.7891 23.3477 36.1836 23.293 36.5508 23.1836C 36.918 23.0742 37.25 22.9297 37.5469 22.75C 37.8516 22.5703 38.1133 22.3672 38.332 22.1406C 38.5508 21.9062 38.7227 21.6641 38.8477 21.4141L 38.8477 18.8477L 36.832 18.8477C 35.5664 18.8477 34.582 19.0352 33.8789 19.4102C 33.1758 19.7852 32.8242 20.375 32.8242 21.1797C 32.8242 21.4922 32.875 21.7812 32.9766 22.0469C 33.0859 22.3125 33.2461 22.543 33.457 22.7383C 33.668 22.9258 33.9336 23.0742 34.2539 23.1836C 34.5742 23.293 34.9453 23.3477 35.3672 23.3477ZM 47.2266 12.3203L 47.3789 14.1953C 47.8398 13.5391 48.4062 13.0273 49.0781 12.6602C 49.75 12.2852 50.5 12.0938 51.3281 12.0859C 51.9922 12.0859 52.5938 12.1797 53.1328 12.3672C 53.6797 12.5547 54.1445 12.8477 54.5273 13.2461C 54.9102 13.6445 55.2031 14.1523 55.4062 14.7695C 55.6172 15.3789 55.7227 16.1055 55.7227 16.9492L 55.7227 25L 53.5547 25L 53.5547 16.9961C 53.5547 16.4336 53.4922 15.957 53.3672 15.5664C 53.2422 15.1758 53.0547 14.8594 52.8047 14.6172C 52.5625 14.375 52.2617 14.1992 51.9023 14.0898C 51.5508 13.9805 51.1445 13.9258 50.6836 13.9258C 49.957 13.9258 49.3164 14.1094 48.7617 14.4766C 48.2148 14.8359 47.7773 15.3125 47.4492 15.9062L 47.4492 25L 45.2812 25L 45.2812 12.3203L 47.2266 12.3203ZM 64.8281 9.25L 64.8281 12.3203L 69.6562 12.3203L 69.6562 13.9961L 64.8281 13.9961L 64.8281 20.8867C 64.8281 21.3789 64.8906 21.7852 65.0156 22.1055C 65.1406 22.4258 65.3125 22.6836 65.5312 22.8789C 65.75 23.0664 66 23.1992 66.2812 23.2773C 66.5703 23.3555 66.875 23.3945 67.1953 23.3945C 67.4297 23.3945 67.6719 23.3828 67.9219 23.3594C 68.1719 23.3281 68.4141 23.293 68.6484 23.2539C 68.8906 23.2148 69.1133 23.1758 69.3164 23.1367C 69.5273 23.0898 69.6992 23.0508 69.832 23.0195L 70.1367 24.5547C 69.957 24.6641 69.7383 24.7617 69.4805 24.8477C 69.2227 24.9258 68.9414 24.9922 68.6367 25.0469C 68.332 25.1094 68.0078 25.1562 67.6641 25.1875C 67.3281 25.2188 66.9922 25.2344 66.6562 25.2344C 66.0938 25.2344 65.5664 25.1562 65.0742 25C 64.5898 24.8359 64.168 24.582 63.8086 24.2383C 63.4492 23.8867 63.1641 23.4375 62.9531 22.8906C 62.75 22.3359 62.6484 21.668 62.6484 20.8867L 62.6484 13.9961L 59.3203 13.9961L 59.3203 12.3203L 62.6484 12.3203L 62.6484 9.25L 64.8281 9.25ZM 82.3359 23.2539C 81.9141 23.8789 81.3867 24.3672 80.7539 24.7188C 80.1211 25.0625 79.3906 25.2344 78.5625 25.2344C 77.8984 25.2344 77.2969 25.1328 76.7578 24.9297C 76.2188 24.7188 75.7578 24.3945 75.375 23.957C 74.9922 23.5195 74.6953 22.9648 74.4844 22.293C 74.2812 21.6133 74.1797 20.8008 74.1797 19.8555L 74.1797 12.3203L 76.3477 12.3203L 76.3477 19.8789C 76.3477 20.5664 76.4023 21.1367 76.5117 21.5898C 76.6211 22.043 76.7852 22.4062 77.0039 22.6797C 77.2227 22.9453 77.4883 23.1328 77.8008 23.2422C 78.1211 23.3516 78.4883 23.4062 78.9023 23.4062C 79.7852 23.4062 80.4961 23.2266 81.0352 22.8672C 81.582 22.5078 81.9883 22.0234 82.2539 21.4141L 82.2539 12.3203L 84.4336 12.3203L 84.4336 25L 82.4648 25L 82.3359 23.2539ZM 89.5195 12.3203L 89.5781 13.5156C 89.8359 13.0703 90.1719 12.7227 90.5859 12.4727C 91.0078 12.2227 91.5156 12.0938 92.1094 12.0859C 93.2734 12.0859 94.0508 12.5391 94.4414 13.4453C 94.6914 13.0391 95.0195 12.7148 95.4258 12.4727C 95.8398 12.2227 96.3398 12.0938 96.9258 12.0859C 97.8555 12.0859 98.5703 12.3711 99.0703 12.9414C 99.5703 13.5117 99.8203 14.375 99.8203 15.5312L 99.8203 25L 97.7578 25L 97.7578 15.5078C 97.7578 14.4453 97.2695 13.918 96.293 13.9258C 96.0352 13.9258 95.8125 13.9609 95.625 14.0312C 95.4375 14.1016 95.2812 14.1992 95.1562 14.3242C 95.0312 14.4414 94.9336 14.582 94.8633 14.7461C 94.793 14.9023 94.7461 15.0664 94.7227 15.2383L 94.7227 25L 92.6602 25L 92.6602 15.4961C 92.6602 14.9883 92.5469 14.5977 92.3203 14.3242C 92.0938 14.0508 91.7344 13.918 91.2422 13.9258C 90.7891 13.9258 90.4375 14.0156 90.1875 14.1953C 89.9375 14.375 89.7539 14.6133 89.6367 14.9102L 89.6367 25L 87.5742 25L 87.5742 12.3203L 89.5195 12.3203Z"/>
</defs>
</svg>
