<svg version="1.1" xmlns="http://www.w3.org/2000/svg" width="9" height="14" viewBox="0 0 9 14">
<title>angle-double-down</title>
<path fill="black" d="M8.398 6.75q0 0.102-0.078 0.18l-3.641 3.641q-0.078 0.078-0.18 0.078t-0.18-0.078l-3.641-3.641q-0.078-0.078-0.078-0.18t0.078-0.18l0.391-0.391q0.078-0.078 0.18-0.078t0.18 0.078l3.070 3.070 3.070-3.070q0.078-0.078 0.18-0.078t0.18 0.078l0.391 0.391q0.078 0.078 0.078 0.18zM8.398 3.75q0 0.102-0.078 0.18l-3.641 3.641q-0.078 0.078-0.18 0.078t-0.18-0.078l-3.641-3.641q-0.078-0.078-0.078-0.18t0.078-0.18l0.391-0.391q0.078-0.078 0.18-0.078t0.18 0.078l3.070 3.070 3.070-3.070q0.078-0.078 0.18-0.078t0.18 0.078l0.391 0.391q0.078 0.078 0.078 0.18z"></path>
</svg>
