<svg width="500" height="418" viewBox="0 0 500 418" version="1.1" xmlns="http://www.w3.org/2000/svg" xmlns:xlink="http://www.w3.org/1999/xlink">
<title>Group</title>
<desc>Created using Figma</desc>
<g id="Canvas" transform="translate(70 18)">
<g id="Group">
<g id="Rectangle 4">
<use xlink:href="#path0_fill" transform="translate(-70 -18)" fill="#F3F3F3"/>
</g>
<g id="Group">
<g id="Rectangle">
<use xlink:href="#path1_fill" transform="translate(-70 0)" fill="#283F51"/>
</g>
<g id="Ellipse">
<use xlink:href="#path2_fill" transform="translate(-66 -14)" fill="#F14343"/>
</g>
<g id="Ellipse">
<use xlink:href="#path2_fill" transform="translate(-51 -14)" fill="#F1B943"/>
<use xlink:href="#path2_fill" transform="translate(-51 -14)" fill="#F1B943"/>
</g>
<g id="Ellipse">
<use xlink:href="#path2_fill" transform="translate(-36 -14)" fill="#F1B943"/>
<use xlink:href="#path2_fill" transform="translate(-36 -14)" fill="#61EA8D"/>
</g>
</g>
<g id="Group" filter="url(#filter0_d)">
<g id="Rectangle 2">
<use xlink:href="#path3_fill" transform="translate(-38 29)" fill="#399ED7"/>
</g>
<g id="Rectangle 2">
<use xlink:href="#path4_fill" transform="translate(-23 51)" fill="#DF9B35"/>
</g>
<g id="Rectangle 2">
<use xlink:href="#path4_fill" transform="translate(-23 73)" fill="#FFBA53"/>
</g>
<g id="Rectangle 2">
<use xlink:href="#path5_fill" transform="translate(-23 95)" fill="#F3AE47"/>
</g>
<g id="Rectangle 2">
<use xlink:href="#path6_fill" transform="translate(-38 139)" fill="#33C7B0"/>
</g>
<g id="Rectangle 2">
<use xlink:href="#path4_fill" transform="translate(-23 161)" fill="#DF9B35"/>
</g>
<g id="Rectangle 2">
<use xlink:href="#path4_fill" transform="translate(-23 183)" fill="#FFBA53"/>
</g>
<g id="Rectangle 2">
<use xlink:href="#path7_fill" transform="translate(-23 205)" fill="#F3AE47"/>
</g>
<g id="Rectangle 2">
<use xlink:href="#path3_fill" transform="translate(-38 249)" fill="#399ED7"/>
</g>
<g id="Rectangle 2">
<use xlink:href="#path4_fill" transform="translate(-23 271)" fill="#CECECE"/>
</g>
<g id="Rectangle 2">
<use xlink:href="#path4_fill" transform="translate(-23 293)" fill="#EDEDED"/>
</g>
<g id="Rectangle 2">
<use xlink:href="#path5_fill" transform="translate(-23 315)" fill="#DFDFDF"/>
</g>
<g id="Rectangle 2">
<use xlink:href="#path4_fill" transform="translate(-23 337)" fill="#DFDFDF"/>
</g>
<g id="Rectangle 2">
<use xlink:href="#path4_fill" transform="translate(-23 359)" fill="#E8E6E4"/>
</g>
<g id="Rectangle 2">
<use xlink:href="#path8_fill" transform="translate(126 315)" fill="#F3AE47"/>
</g>
</g>
<g id="Group">
<g id="Rectangle 2">
<use xlink:href="#path9_fill" transform="translate(325 23)" fill="#399ED7"/>
</g>
<g id="Rectangle 2">
<use xlink:href="#path10_fill" transform="translate(329.851 29.6257)" fill="#DF9B35"/>
</g>
<g id="Rectangle 2">
<use xlink:href="#path10_fill" transform="translate(329.851 36.2515)" fill="#FFBA53"/>
</g>
<g id="Rectangle 2">
<use xlink:href="#path11_fill" transform="translate(329.851 42.8772)" fill="#F3AE47"/>
</g>
<g id="Rectangle 2">
<use xlink:href="#path12_fill" transform="translate(325 56.1287)" fill="#33C7B0"/>
</g>
<g id="Rectangle 2">
<use xlink:href="#path10_fill" transform="translate(329.851 62.7544)" fill="#DF9B35"/>
</g>
<g id="Rectangle 2">
<use xlink:href="#path10_fill" transform="translate(329.851 69.3801)" fill="#FFBA53"/>
</g>
<g id="Rectangle 2">
<use xlink:href="#path13_fill" transform="translate(329.851 76.0058)" fill="#F3AE47"/>
</g>
<g id="Rectangle 2">
<use xlink:href="#path9_fill" transform="translate(325 89.2573)" fill="#399ED7"/>
</g>
<g id="Rectangle 2">
<use xlink:href="#path10_fill" transform="translate(329.851 95.883)" fill="#CECECE"/>
</g>
<g id="Rectangle 2">
<use xlink:href="#path10_fill" transform="translate(329.851 102.509)" fill="#EDEDED"/>
</g>
<g id="Rectangle 2">
<use xlink:href="#path11_fill" transform="translate(329.851 109.134)" fill="#DFDFDF"/>
</g>
<g id="Rectangle 2">
<use xlink:href="#path10_fill" transform="translate(329.851 115.76)" fill="#DFDFDF"/>
</g>
<g id="Rectangle 2">
<use xlink:href="#path10_fill" transform="translate(329.851 122.386)" fill="#E8E6E4"/>
</g>
<g id="Rectangle 2">
<use xlink:href="#path14_fill" transform="translate(378.038 109.134)" fill="#F3AE47"/>
</g>
</g>
<g id="Rectangle 5">
<use xlink:href="#path15_fill" transform="translate(316 12)" fill="#405D73" fill-opacity="0.53"/>
</g>
</g>
</g>
<defs>
<filter id="filter0_d" filterUnits="userSpaceOnUse" x="-42" y="29" width="243" height="350" color-interpolation-filters="sRGB">
<feFlood flood-opacity="0" result="BackgroundImageFix"/>
<feColorMatrix in="SourceAlpha" type="matrix" values="0 0 0 0 0 0 0 0 0 0 0 0 0 0 0 0 0 0 255 0"/>
<feOffset dx="0" dy="4"/>
<feGaussianBlur stdDeviation="2"/>
<feColorMatrix type="matrix" values="0 0 0 0 0 0 0 0 0 0 0 0 0 0 0 0 0 0 0.25 0"/>
<feBlend mode="normal" in2="BackgroundImageFix" result="effect1_dropShadow"/>
<feBlend mode="normal" in="SourceGraphic" in2="effect1_dropShadow" result="shape"/>
</filter>
<path id="path0_fill" d="M 0 0L 500 0L 500 18L 0 18L 0 0Z"/>
<path id="path1_fill" d="M 0 0L 500 0L 500 400L 0 400L 0 0Z"/>
<path id="path2_fill" d="M 10 5C 10 7.76142 7.76142 10 5 10C 2.23858 10 0 7.76142 0 5C 0 2.23858 2.23858 0 5 0C 7.76142 0 10 2.23858 10 5Z"/>
<path id="path3_fill" d="M 0 0L 132 0L 132 12L 0 12L 0 0Z"/>
<path id="path4_fill" d="M 0 0L 220 0L 220 12L 0 12L 0 0Z"/>
<path id="path5_fill" d="M 0 0L 143 0L 143 12L 0 12L 0 0Z"/>
<path id="path6_fill" d="M 0 0L 100 0L 100 12L 0 12L 0 0Z"/>
<path id="path7_fill" d="M 0 0L 80 0L 80 12L 0 12L 0 0Z"/>
<path id="path8_fill" d="M 0 0L 71 0L 71 12L 0 12L 0 0Z"/>
<path id="path9_fill" d="M 0 0L 42.6894 0L 42.6894 3.61404L 0 3.61404L 0 0Z"/>
<path id="path10_fill" d="M 0 0L 71.1489 0L 71.1489 3.61404L 0 3.61404L 0 0Z"/>
<path id="path11_fill" d="M 0 0L 46.2468 0L 46.2468 3.61404L 0 3.61404L 0 0Z"/>
<path id="path12_fill" d="M 0 0L 32.3404 0L 32.3404 3.61404L 0 3.61404L 0 0Z"/>
<path id="path13_fill" d="M 0 0L 25.8723 0L 25.8723 3.61404L 0 3.61404L 0 0Z"/>
<path id="path14_fill" d="M 0 0L 22.9617 0L 22.9617 3.61404L 0 3.61404L 0 0Z"/>
<path id="path15_fill" d="M 0 0L 98 0L 98 376L 0 376L 0 0Z"/>
</defs>
</svg>
