<svg width="397" height="300" viewBox="0 0 397 300" version="1.1" xmlns="http://www.w3.org/2000/svg" xmlns:xlink="http://www.w3.org/1999/xlink">
<title>Group</title>
<desc>Created using Figma</desc>
<g id="Canvas" transform="translate(635 401)">
<g id="Group">
<g id="Rectangle">
<use xlink:href="#path0_fill" transform="translate(-635 -401)" fill="#F8F8F8"/>
</g>
<g id="Rectangle 2">
<use xlink:href="#path1_fill" transform="translate(-635 -401)" fill="#C4C4C4"/>
</g>
<g id="Rectangle 3">
<use xlink:href="#path2_fill" transform="translate(-635 -401)" fill="#DBDBDB"/>
</g>
<g id="Rectangle 4">
<use xlink:href="#path3_fill" transform="translate(-571 -390)" fill="#FFFFFF"/>
</g>
<g id="Rectangle 5">
<use xlink:href="#path4_fill" transform="translate(-616 -334)" fill="#615CCE"/>
</g>
<g id="Rectangle 6">
<use xlink:href="#path5_fill" transform="translate(-466 -334)" fill="#C4C4C4"/>
</g>
<g id="Rectangle 6">
<use xlink:href="#path5_fill" transform="translate(-466 -308)" fill="#C4C4C4"/>
</g>
<g id="Rectangle 6">
<use xlink:href="#path5_fill" transform="translate(-466 -282)" fill="#C4C4C4"/>
</g>
<g id="Rectangle 6">
<use xlink:href="#path5_fill" transform="translate(-466 -230)" fill="#C4C4C4"/>
</g>
<g id="Ellipse">
<use xlink:href="#path6_fill" transform="translate(-627 -385)" fill="#F5251C"/>
</g>
<g id="Ellipse">
<use xlink:href="#path6_fill" transform="translate(-611 -385)" fill="#F59E1C"/>
</g>
<g id="Ellipse">
<use xlink:href="#path6_fill" transform="translate(-595 -385)" fill="#19E462"/>
</g>
<g id="Rectangle 6">
<use xlink:href="#path5_fill" transform="translate(-466 -204)" fill="#C4C4C4"/>
</g>
<g id="Rectangle 6">
<use xlink:href="#path5_fill" transform="translate(-466 -178)" fill="#C4C4C4"/>
</g>
<g id="Rectangle 6">
<use xlink:href="#path7_fill" transform="translate(-466 -152)" fill="#C4C4C4"/>
</g>
<g id="http://example.com/api/1.1.0">
<use xlink:href="#path8_fill" transform="translate(-564 -386)" fill="#363636"/>
</g>
</g>
</g>
<defs>
<path id="path0_fill" d="M 0 0L 397 0L 397 300L 0 300L 0 0Z"/>
<path id="path1_fill" d="M 0 0L 397 0L 397 53L 0 53L 0 0Z"/>
<path id="path2_fill" d="M 0 0L 397 0L 397 43L 0 43L 0 0Z"/>
<path id="path3_fill" d="M 0 0L 319 0L 319 21L 0 21L 0 0Z"/>
<path id="path4_fill" d="M 0 0L 135 0L 135 213L 0 213L 0 0Z"/>
<path id="path5_fill" d="M 0 0L 214 0L 214 16L 0 16L 0 0Z"/>
<path id="path6_fill" d="M 11 5.5C 11 8.53757 8.53757 11 5.5 11C 2.46243 11 0 8.53757 0 5.5C 0 2.46243 2.46243 0 5.5 0C 8.53757 0 11 2.46243 11 5.5Z"/>
<path id="path7_fill" d="M 0 0L 113 0L 113 16L 0 16L 0 0Z"/>
<path id="path8_fill" d="M 1.9043 5.42773C 2.38477 4.83789 3.00977 4.54297 3.7793 4.54297C 5.11914 4.54297 5.79492 5.29883 5.80664 6.81055L 5.80664 11L 4.72266 11L 4.72266 6.80469C 4.71875 6.34766 4.61328 6.00977 4.40625 5.79102C 4.20312 5.57227 3.88477 5.46289 3.45117 5.46289C 3.09961 5.46289 2.79102 5.55664 2.52539 5.74414C 2.25977 5.93164 2.05273 6.17773 1.9043 6.48242L 1.9043 11L 0.820312 11L 0.820312 2L 1.9043 2L 1.9043 5.42773ZM 8.90039 3.125L 8.90039 4.66016L 10.084 4.66016L 10.084 5.49805L 8.90039 5.49805L 8.90039 9.42969C 8.90039 9.68359 8.95312 9.875 9.05859 10.0039C 9.16406 10.1289 9.34375 10.1914 9.59766 10.1914C 9.72266 10.1914 9.89453 10.168 10.1133 10.1211L 10.1133 11C 9.82812 11.0781 9.55078 11.1172 9.28125 11.1172C 8.79688 11.1172 8.43164 10.9707 8.18555 10.6777C 7.93945 10.3848 7.81641 9.96875 7.81641 9.42969L 7.81641 5.49805L 6.66211 5.49805L 6.66211 4.66016L 7.81641 4.66016L 7.81641 3.125L 8.90039 3.125ZM 12.8262 3.125L 12.8262 4.66016L 14.0098 4.66016L 14.0098 5.49805L 12.8262 5.49805L 12.8262 9.42969C 12.8262 9.68359 12.8789 9.875 12.9844 10.0039C 13.0898 10.1289 13.2695 10.1914 13.5234 10.1914C 13.6484 10.1914 13.8203 10.168 14.0391 10.1211L 14.0391 11C 13.7539 11.0781 13.4766 11.1172 13.207 11.1172C 12.7227 11.1172 12.3574 10.9707 12.1113 10.6777C 11.8652 10.3848 11.7422 9.96875 11.7422 9.42969L 11.7422 5.49805L 10.5879 5.49805L 10.5879 4.66016L 11.7422 4.66016L 11.7422 3.125L 12.8262 3.125ZM 20.6367 7.90039C 20.6367 8.86523 20.416 9.64258 19.9746 10.2324C 19.5332 10.8223 18.9355 11.1172 18.1816 11.1172C 17.4121 11.1172 16.8066 10.873 16.3652 10.3848L 16.3652 13.4375L 15.2812 13.4375L 15.2812 4.66016L 16.2715 4.66016L 16.3242 5.36328C 16.7656 4.81641 17.3789 4.54297 18.1641 4.54297C 18.9258 4.54297 19.5273 4.83008 19.9688 5.4043C 20.4141 5.97852 20.6367 6.77734 20.6367 7.80078L 20.6367 7.90039ZM 19.5527 7.77734C 19.5527 7.0625 19.4004 6.49805 19.0957 6.08398C 18.791 5.66992 18.373 5.46289 17.8418 5.46289C 17.1855 5.46289 16.6934 5.75391 16.3652 6.33594L 16.3652 9.36523C 16.6895 9.94336 17.1855 10.2324 17.8535 10.2324C 18.373 10.2324 18.7852 10.0273 19.0898 9.61719C 19.3984 9.20312 19.5527 8.58984 19.5527 7.77734ZM 21.9844 10.4316C 21.9844 10.2441 22.0391 10.0879 22.1484 9.96289C 22.2617 9.83789 22.4297 9.77539 22.6523 9.77539C 22.875 9.77539 23.043 9.83789 23.1562 9.96289C 23.2734 10.0879 23.332 10.2441 23.332 10.4316C 23.332 10.6113 23.2734 10.7617 23.1562 10.8828C 23.043 11.0039 22.875 11.0645 22.6523 11.0645C 22.4297 11.0645 22.2617 11.0039 22.1484 10.8828C 22.0391 10.7617 21.9844 10.6113 21.9844 10.4316ZM 21.9902 5.25781C 21.9902 5.07031 22.0449 4.91406 22.1543 4.78906C 22.2676 4.66406 22.4355 4.60156 22.6582 4.60156C 22.8809 4.60156 23.0488 4.66406 23.1621 4.78906C 23.2793 4.91406 23.3379 5.07031 23.3379 5.25781C 23.3379 5.4375 23.2793 5.58789 23.1621 5.70898C 23.0488 5.83008 22.8809 5.89062 22.6582 5.89062C 22.4355 5.89062 22.2676 5.83008 22.1543 5.70898C 22.0449 5.58789 21.9902 5.4375 21.9902 5.25781ZM 25.1426 11.7324L 24.2109 11.7324L 27.7734 2.46875L 28.6992 2.46875L 25.1426 11.7324ZM 28.7754 11.7324L 27.8438 11.7324L 31.4062 2.46875L 32.332 2.46875L 28.7754 11.7324ZM 36.1348 11.1172C 35.2754 11.1172 34.5762 10.8359 34.0371 10.2734C 33.498 9.70703 33.2285 8.95117 33.2285 8.00586L 33.2285 7.80664C 33.2285 7.17773 33.3477 6.61719 33.5859 6.125C 33.8281 5.62891 34.1641 5.24219 34.5938 4.96484C 35.0273 4.68359 35.4961 4.54297 36 4.54297C 36.8242 4.54297 37.4648 4.81445 37.9219 5.35742C 38.3789 5.90039 38.6074 6.67773 38.6074 7.68945L 38.6074 8.14062L 34.3125 8.14062C 34.3281 8.76562 34.5098 9.27148 34.8574 9.6582C 35.209 10.041 35.6543 10.2324 36.1934 10.2324C 36.5762 10.2324 36.9004 10.1543 37.166 9.99805C 37.4316 9.8418 37.6641 9.63477 37.8633 9.37695L 38.5254 9.89258C 37.9941 10.709 37.1973 11.1172 36.1348 11.1172ZM 36 5.43359C 35.5625 5.43359 35.1953 5.59375 34.8984 5.91406C 34.6016 6.23047 34.418 6.67578 34.3477 7.25L 37.5234 7.25L 37.5234 7.16797C 37.4922 6.61719 37.3438 6.19141 37.0781 5.89062C 36.8125 5.58594 36.4531 5.43359 36 5.43359ZM 41.9941 6.97461L 43.4004 4.66016L 44.666 4.66016L 42.5918 7.79492L 44.7305 11L 43.4766 11L 42.0117 8.62695L 40.5469 11L 39.2871 11L 41.4258 7.79492L 39.3516 4.66016L 40.6055 4.66016L 41.9941 6.97461ZM 49.7344 11C 49.6719 10.875 49.6211 10.6523 49.582 10.332C 49.0781 10.8555 48.4766 11.1172 47.7773 11.1172C 47.1523 11.1172 46.6387 10.9414 46.2363 10.5898C 45.8379 10.2344 45.6387 9.78516 45.6387 9.24219C 45.6387 8.58203 45.8887 8.07031 46.3887 7.70703C 46.8926 7.33984 47.5996 7.15625 48.5098 7.15625L 49.5645 7.15625L 49.5645 6.6582C 49.5645 6.2793 49.4512 5.97852 49.2246 5.75586C 48.998 5.5293 48.6641 5.41602 48.2227 5.41602C 47.8359 5.41602 47.5117 5.51367 47.25 5.70898C 46.9883 5.9043 46.8574 6.14062 46.8574 6.41797L 45.7676 6.41797C 45.7676 6.10156 45.8789 5.79688 46.1016 5.50391C 46.3281 5.20703 46.6328 4.97266 47.0156 4.80078C 47.4023 4.62891 47.8262 4.54297 48.2871 4.54297C 49.0176 4.54297 49.5898 4.72656 50.0039 5.09375C 50.418 5.45703 50.6328 5.95898 50.6484 6.59961L 50.6484 9.51758C 50.6484 10.0996 50.7227 10.5625 50.8711 10.9062L 50.8711 11L 49.7344 11ZM 47.9355 10.1738C 48.2754 10.1738 48.5977 10.0859 48.9023 9.91016C 49.207 9.73438 49.4277 9.50586 49.5645 9.22461L 49.5645 7.92383L 48.7148 7.92383C 47.3867 7.92383 46.7227 8.3125 46.7227 9.08984C 46.7227 9.42969 46.8359 9.69531 47.0625 9.88672C 47.2891 10.0781 47.5801 10.1738 47.9355 10.1738ZM 53.3672 4.66016L 53.3965 5.36328C 53.8613 4.81641 54.4883 4.54297 55.2773 4.54297C 56.1641 4.54297 56.7676 4.88281 57.0879 5.5625C 57.2988 5.25781 57.5723 5.01172 57.9082 4.82422C 58.248 4.63672 58.6484 4.54297 59.1094 4.54297C 60.5 4.54297 61.207 5.2793 61.2305 6.75195L 61.2305 11L 60.1465 11L 60.1465 6.81641C 60.1465 6.36328 60.043 6.02539 59.8359 5.80273C 59.6289 5.57617 59.2812 5.46289 58.793 5.46289C 58.3906 5.46289 58.0566 5.58398 57.791 5.82617C 57.5254 6.06445 57.3711 6.38672 57.3281 6.79297L 57.3281 11L 56.2383 11L 56.2383 6.8457C 56.2383 5.92383 55.7871 5.46289 54.8848 5.46289C 54.1738 5.46289 53.6875 5.76562 53.4258 6.37109L 53.4258 11L 52.3418 11L 52.3418 4.66016L 53.3672 4.66016ZM 68.2266 7.90039C 68.2266 8.86523 68.0059 9.64258 67.5645 10.2324C 67.123 10.8223 66.5254 11.1172 65.7715 11.1172C 65.002 11.1172 64.3965 10.873 63.9551 10.3848L 63.9551 13.4375L 62.8711 13.4375L 62.8711 4.66016L 63.8613 4.66016L 63.9141 5.36328C 64.3555 4.81641 64.9688 4.54297 65.7539 4.54297C 66.5156 4.54297 67.1172 4.83008 67.5586 5.4043C 68.0039 5.97852 68.2266 6.77734 68.2266 7.80078L 68.2266 7.90039ZM 67.1426 7.77734C 67.1426 7.0625 66.9902 6.49805 66.6855 6.08398C 66.3809 5.66992 65.9629 5.46289 65.4316 5.46289C 64.7754 5.46289 64.2832 5.75391 63.9551 6.33594L 63.9551 9.36523C 64.2793 9.94336 64.7754 10.2324 65.4434 10.2324C 65.9629 10.2324 66.375 10.0273 66.6797 9.61719C 66.9883 9.20312 67.1426 8.58984 67.1426 7.77734ZM 70.7871 11L 69.7031 11L 69.7031 2L 70.7871 2L 70.7871 11ZM 75.1582 11.1172C 74.2988 11.1172 73.5996 10.8359 73.0605 10.2734C 72.5215 9.70703 72.252 8.95117 72.252 8.00586L 72.252 7.80664C 72.252 7.17773 72.3711 6.61719 72.6094 6.125C 72.8516 5.62891 73.1875 5.24219 73.6172 4.96484C 74.0508 4.68359 74.5195 4.54297 75.0234 4.54297C 75.8477 4.54297 76.4883 4.81445 76.9453 5.35742C 77.4023 5.90039 77.6309 6.67773 77.6309 7.68945L 77.6309 8.14062L 73.3359 8.14062C 73.3516 8.76562 73.5332 9.27148 73.8809 9.6582C 74.2324 10.041 74.6777 10.2324 75.2168 10.2324C 75.5996 10.2324 75.9238 10.1543 76.1895 9.99805C 76.4551 9.8418 76.6875 9.63477 76.8867 9.37695L 77.5488 9.89258C 77.0176 10.709 76.2207 11.1172 75.1582 11.1172ZM 75.0234 5.43359C 74.5859 5.43359 74.2188 5.59375 73.9219 5.91406C 73.625 6.23047 73.4414 6.67578 73.3711 7.25L 76.5469 7.25L 76.5469 7.16797C 76.5156 6.61719 76.3672 6.19141 76.1016 5.89062C 75.8359 5.58594 75.4766 5.43359 75.0234 5.43359ZM 78.9141 10.4316C 78.9141 10.2441 78.9688 10.0879 79.0781 9.96289C 79.1914 9.83789 79.3594 9.77539 79.582 9.77539C 79.8047 9.77539 79.9727 9.83789 80.0859 9.96289C 80.2031 10.0879 80.2617 10.2441 80.2617 10.4316C 80.2617 10.6113 80.2031 10.7617 80.0859 10.8828C 79.9727 11.0039 79.8047 11.0645 79.582 11.0645C 79.3594 11.0645 79.1914 11.0039 79.0781 10.8828C 78.9688 10.7617 78.9141 10.6113 78.9141 10.4316ZM 84.5977 10.2324C 84.9844 10.2324 85.3223 10.1152 85.6113 9.88086C 85.9004 9.64648 86.0605 9.35352 86.0918 9.00195L 87.1172 9.00195C 87.0977 9.36523 86.9727 9.71094 86.7422 10.0391C 86.5117 10.3672 86.2031 10.6289 85.8164 10.8242C 85.4336 11.0195 85.0273 11.1172 84.5977 11.1172C 83.7344 11.1172 83.0469 10.8301 82.5352 10.2559C 82.0273 9.67773 81.7734 8.88867 81.7734 7.88867L 81.7734 7.70703C 81.7734 7.08984 81.8867 6.54102 82.1133 6.06055C 82.3398 5.58008 82.6641 5.20703 83.0859 4.94141C 83.5117 4.67578 84.0137 4.54297 84.5918 4.54297C 85.3027 4.54297 85.8926 4.75586 86.3613 5.18164C 86.834 5.60742 87.0859 6.16016 87.1172 6.83984L 86.0918 6.83984C 86.0605 6.42969 85.9043 6.09375 85.623 5.83203C 85.3457 5.56641 85.002 5.43359 84.5918 5.43359C 84.041 5.43359 83.6133 5.63281 83.3086 6.03125C 83.0078 6.42578 82.8574 6.99805 82.8574 7.74805L 82.8574 7.95312C 82.8574 8.68359 83.0078 9.24609 83.3086 9.64062C 83.6094 10.0352 84.0391 10.2324 84.5977 10.2324ZM 88.0488 7.77148C 88.0488 7.15039 88.1699 6.5918 88.4121 6.0957C 88.6582 5.59961 88.998 5.2168 89.4316 4.94727C 89.8691 4.67773 90.3672 4.54297 90.9258 4.54297C 91.7891 4.54297 92.4863 4.8418 93.0176 5.43945C 93.5527 6.03711 93.8203 6.83203 93.8203 7.82422L 93.8203 7.90039C 93.8203 8.51758 93.7012 9.07227 93.4629 9.56445C 93.2285 10.0527 92.8906 10.4336 92.4492 10.707C 92.0117 10.9805 91.5078 11.1172 90.9375 11.1172C 90.0781 11.1172 89.3809 10.8184 88.8457 10.2207C 88.3145 9.62305 88.0488 8.83203 88.0488 7.84766L 88.0488 7.77148ZM 89.1387 7.90039C 89.1387 8.60352 89.3008 9.16797 89.625 9.59375C 89.9531 10.0195 90.3906 10.2324 90.9375 10.2324C 91.4883 10.2324 91.9258 10.0176 92.25 9.58789C 92.5742 9.1543 92.7363 8.54883 92.7363 7.77148C 92.7363 7.07617 92.5703 6.51367 92.2383 6.08398C 91.9102 5.65039 91.4727 5.43359 90.9258 5.43359C 90.3906 5.43359 89.959 5.64648 89.6309 6.07227C 89.3027 6.49805 89.1387 7.10742 89.1387 7.90039ZM 96.1992 4.66016L 96.2285 5.36328C 96.6934 4.81641 97.3203 4.54297 98.1094 4.54297C 98.9961 4.54297 99.5996 4.88281 99.9199 5.5625C 100.131 5.25781 100.404 5.01172 100.74 4.82422C 101.08 4.63672 101.48 4.54297 101.941 4.54297C 103.332 4.54297 104.039 5.2793 104.062 6.75195L 104.062 11L 102.979 11L 102.979 6.81641C 102.979 6.36328 102.875 6.02539 102.668 5.80273C 102.461 5.57617 102.113 5.46289 101.625 5.46289C 101.223 5.46289 100.889 5.58398 100.623 5.82617C 100.357 6.06445 100.203 6.38672 100.16 6.79297L 100.16 11L 99.0703 11L 99.0703 6.8457C 99.0703 5.92383 98.6191 5.46289 97.7168 5.46289C 97.0059 5.46289 96.5195 5.76562 96.2578 6.37109L 96.2578 11L 95.1738 11L 95.1738 4.66016L 96.1992 4.66016ZM 105.92 11.7324L 104.988 11.7324L 108.551 2.46875L 109.477 2.46875L 105.92 11.7324ZM 114.562 11C 114.5 10.875 114.449 10.6523 114.41 10.332C 113.906 10.8555 113.305 11.1172 112.605 11.1172C 111.98 11.1172 111.467 10.9414 111.064 10.5898C 110.666 10.2344 110.467 9.78516 110.467 9.24219C 110.467 8.58203 110.717 8.07031 111.217 7.70703C 111.721 7.33984 112.428 7.15625 113.338 7.15625L 114.393 7.15625L 114.393 6.6582C 114.393 6.2793 114.279 5.97852 114.053 5.75586C 113.826 5.5293 113.492 5.41602 113.051 5.41602C 112.664 5.41602 112.34 5.51367 112.078 5.70898C 111.816 5.9043 111.686 6.14062 111.686 6.41797L 110.596 6.41797C 110.596 6.10156 110.707 5.79688 110.93 5.50391C 111.156 5.20703 111.461 4.97266 111.844 4.80078C 112.23 4.62891 112.654 4.54297 113.115 4.54297C 113.846 4.54297 114.418 4.72656 114.832 5.09375C 115.246 5.45703 115.461 5.95898 115.477 6.59961L 115.477 9.51758C 115.477 10.0996 115.551 10.5625 115.699 10.9062L 115.699 11L 114.562 11ZM 112.764 10.1738C 113.104 10.1738 113.426 10.0859 113.73 9.91016C 114.035 9.73438 114.256 9.50586 114.393 9.22461L 114.393 7.92383L 113.543 7.92383C 112.215 7.92383 111.551 8.3125 111.551 9.08984C 111.551 9.42969 111.664 9.69531 111.891 9.88672C 112.117 10.0781 112.408 10.1738 112.764 10.1738ZM 122.531 7.90039C 122.531 8.86523 122.311 9.64258 121.869 10.2324C 121.428 10.8223 120.83 11.1172 120.076 11.1172C 119.307 11.1172 118.701 10.873 118.26 10.3848L 118.26 13.4375L 117.176 13.4375L 117.176 4.66016L 118.166 4.66016L 118.219 5.36328C 118.66 4.81641 119.273 4.54297 120.059 4.54297C 120.82 4.54297 121.422 4.83008 121.863 5.4043C 122.309 5.97852 122.531 6.77734 122.531 7.80078L 122.531 7.90039ZM 121.447 7.77734C 121.447 7.0625 121.295 6.49805 120.99 6.08398C 120.686 5.66992 120.268 5.46289 119.736 5.46289C 119.08 5.46289 118.588 5.75391 118.26 6.33594L 118.26 9.36523C 118.584 9.94336 119.08 10.2324 119.748 10.2324C 120.268 10.2324 120.68 10.0273 120.984 9.61719C 121.293 9.20312 121.447 8.58984 121.447 7.77734ZM 125.092 11L 124.008 11L 124.008 4.66016L 125.092 4.66016L 125.092 11ZM 123.92 2.97852C 123.92 2.80273 123.973 2.6543 124.078 2.5332C 124.188 2.41211 124.348 2.35156 124.559 2.35156C 124.77 2.35156 124.93 2.41211 125.039 2.5332C 125.148 2.6543 125.203 2.80273 125.203 2.97852C 125.203 3.1543 125.148 3.30078 125.039 3.41797C 124.93 3.53516 124.77 3.59375 124.559 3.59375C 124.348 3.59375 124.188 3.53516 124.078 3.41797C 123.973 3.30078 123.92 3.1543 123.92 2.97852ZM 127.049 11.7324L 126.117 11.7324L 129.68 2.46875L 130.605 2.46875L 127.049 11.7324ZM 135.229 11L 134.139 11L 134.139 3.77539L 131.953 4.57812L 131.953 3.59375L 135.059 2.42773L 135.229 2.42773L 135.229 11ZM 138.539 10.4316C 138.539 10.2441 138.594 10.0879 138.703 9.96289C 138.816 9.83789 138.984 9.77539 139.207 9.77539C 139.43 9.77539 139.598 9.83789 139.711 9.96289C 139.828 10.0879 139.887 10.2441 139.887 10.4316C 139.887 10.6113 139.828 10.7617 139.711 10.8828C 139.598 11.0039 139.43 11.0645 139.207 11.0645C 138.984 11.0645 138.816 11.0039 138.703 10.8828C 138.594 10.7617 138.539 10.6113 138.539 10.4316ZM 145.131 11L 144.041 11L 144.041 3.77539L 141.855 4.57812L 141.855 3.59375L 144.961 2.42773L 145.131 2.42773L 145.131 11ZM 148.441 10.4316C 148.441 10.2441 148.496 10.0879 148.605 9.96289C 148.719 9.83789 148.887 9.77539 149.109 9.77539C 149.332 9.77539 149.5 9.83789 149.613 9.96289C 149.73 10.0879 149.789 10.2441 149.789 10.4316C 149.789 10.6113 149.73 10.7617 149.613 10.8828C 149.5 11.0039 149.332 11.0645 149.109 11.0645C 148.887 11.0645 148.719 11.0039 148.605 10.8828C 148.496 10.7617 148.441 10.6113 148.441 10.4316ZM 156.82 7.36133C 156.82 8.63086 156.604 9.57422 156.17 10.1914C 155.736 10.8086 155.059 11.1172 154.137 11.1172C 153.227 11.1172 152.553 10.8164 152.115 10.2148C 151.678 9.60938 151.451 8.70703 151.436 7.50781L 151.436 6.06055C 151.436 4.80664 151.652 3.875 152.086 3.26562C 152.52 2.65625 153.199 2.35156 154.125 2.35156C 155.043 2.35156 155.719 2.64648 156.152 3.23633C 156.586 3.82227 156.809 4.72852 156.82 5.95508L 156.82 7.36133ZM 155.736 5.87891C 155.736 4.96094 155.607 4.29297 155.35 3.875C 155.092 3.45312 154.684 3.24219 154.125 3.24219C 153.57 3.24219 153.166 3.45117 152.912 3.86914C 152.658 4.28711 152.527 4.92969 152.52 5.79688L 152.52 7.53125C 152.52 8.45312 152.652 9.13477 152.918 9.57617C 153.188 10.0137 153.594 10.2324 154.137 10.2324C 154.672 10.2324 155.068 10.0254 155.326 9.61133C 155.588 9.19727 155.725 8.54492 155.736 7.6543L 155.736 5.87891Z"/>
</defs>
</svg>
